<mxfile host="app.diagrams.net" modified="2023-06-25T15:40:48.362Z" agent="Mozilla/5.0 (Windows NT 10.0; Win64; x64) AppleWebKit/537.36 (KHTML, like Gecko) Chrome/114.0.0.0 Safari/537.36" etag="nXHkZSEE3CxqQXrHITvm" version="21.3.8" type="github" pages="3">
  <diagram name="Official" id="VOQePEP4rb1BS9EbYT5j">
    <mxGraphModel dx="3185" dy="2437" grid="1" gridSize="10" guides="1" tooltips="1" connect="1" arrows="1" fold="1" page="1" pageScale="1" pageWidth="827" pageHeight="1169" math="0" shadow="0">
      <root>
        <mxCell id="ZhwHeU2DW-AlFwMiwrjJ-0" />
        <mxCell id="ZhwHeU2DW-AlFwMiwrjJ-1" parent="ZhwHeU2DW-AlFwMiwrjJ-0" />
        <mxCell id="ZhwHeU2DW-AlFwMiwrjJ-2" value="Teacher" style="rounded=0;whiteSpace=wrap;html=1;fillColor=#dae8fc;strokeColor=#6c8ebf;" parent="ZhwHeU2DW-AlFwMiwrjJ-1" vertex="1">
          <mxGeometry x="173" y="-920" width="120" height="60" as="geometry" />
        </mxCell>
        <mxCell id="ZhwHeU2DW-AlFwMiwrjJ-3" value="Student" style="rounded=0;whiteSpace=wrap;html=1;fillColor=#dae8fc;strokeColor=#6c8ebf;" parent="ZhwHeU2DW-AlFwMiwrjJ-1" vertex="1">
          <mxGeometry x="266.74" y="-185" width="120" height="60" as="geometry" />
        </mxCell>
        <mxCell id="ZhwHeU2DW-AlFwMiwrjJ-4" value="Class" style="rounded=0;whiteSpace=wrap;html=1;fillColor=#dae8fc;strokeColor=#6c8ebf;" parent="ZhwHeU2DW-AlFwMiwrjJ-1" vertex="1">
          <mxGeometry x="265.49" y="-520" width="120" height="60" as="geometry" />
        </mxCell>
        <mxCell id="ZhwHeU2DW-AlFwMiwrjJ-5" value="Employee" style="rounded=0;whiteSpace=wrap;html=1;fillColor=#dae8fc;strokeColor=#6c8ebf;" parent="ZhwHeU2DW-AlFwMiwrjJ-1" vertex="1">
          <mxGeometry x="173" y="-1120" width="120" height="60" as="geometry" />
        </mxCell>
        <mxCell id="ZhwHeU2DW-AlFwMiwrjJ-6" value="Supervisor" style="rounded=0;whiteSpace=wrap;html=1;fillColor=#dae8fc;strokeColor=#6c8ebf;" parent="ZhwHeU2DW-AlFwMiwrjJ-1" vertex="1">
          <mxGeometry x="389.75" y="-920" width="120" height="60" as="geometry" />
        </mxCell>
        <mxCell id="ZhwHeU2DW-AlFwMiwrjJ-7" value="Admin" style="rounded=0;whiteSpace=wrap;html=1;fillColor=#dae8fc;strokeColor=#6c8ebf;" parent="ZhwHeU2DW-AlFwMiwrjJ-1" vertex="1">
          <mxGeometry x="2.5" y="-920" width="120" height="60" as="geometry" />
        </mxCell>
        <mxCell id="ZhwHeU2DW-AlFwMiwrjJ-8" value="d" style="ellipse;whiteSpace=wrap;html=1;aspect=fixed;" parent="ZhwHeU2DW-AlFwMiwrjJ-1" vertex="1">
          <mxGeometry x="218" y="-1040" width="30" height="30" as="geometry" />
        </mxCell>
        <mxCell id="ZhwHeU2DW-AlFwMiwrjJ-9" value="" style="endArrow=none;html=1;rounded=0;entryX=0.5;entryY=1;entryDx=0;entryDy=0;exitX=0.5;exitY=0;exitDx=0;exitDy=0;shape=link;" parent="ZhwHeU2DW-AlFwMiwrjJ-1" source="ZhwHeU2DW-AlFwMiwrjJ-8" target="ZhwHeU2DW-AlFwMiwrjJ-5" edge="1">
          <mxGeometry width="50" height="50" relative="1" as="geometry">
            <mxPoint x="438" y="-960" as="sourcePoint" />
            <mxPoint x="488" y="-1010" as="targetPoint" />
          </mxGeometry>
        </mxCell>
        <mxCell id="ZhwHeU2DW-AlFwMiwrjJ-10" value="&lt;u&gt;ID&lt;/u&gt;" style="ellipse;whiteSpace=wrap;html=1;" parent="ZhwHeU2DW-AlFwMiwrjJ-1" vertex="1">
          <mxGeometry x="37.5" y="-990" width="85" height="50" as="geometry" />
        </mxCell>
        <mxCell id="ZhwHeU2DW-AlFwMiwrjJ-11" value="Name" style="ellipse;whiteSpace=wrap;html=1;" parent="ZhwHeU2DW-AlFwMiwrjJ-1" vertex="1">
          <mxGeometry x="-60" y="-1080" width="85" height="50" as="geometry" />
        </mxCell>
        <mxCell id="ZhwHeU2DW-AlFwMiwrjJ-12" value="Phone" style="ellipse;whiteSpace=wrap;html=1;" parent="ZhwHeU2DW-AlFwMiwrjJ-1" vertex="1">
          <mxGeometry x="-60" y="-1140" width="85" height="50" as="geometry" />
        </mxCell>
        <mxCell id="ZhwHeU2DW-AlFwMiwrjJ-13" value="Username" style="ellipse;whiteSpace=wrap;html=1;" parent="ZhwHeU2DW-AlFwMiwrjJ-1" vertex="1">
          <mxGeometry x="46.5" y="-1160" width="85" height="50" as="geometry" />
        </mxCell>
        <mxCell id="ZhwHeU2DW-AlFwMiwrjJ-14" value="Password" style="ellipse;whiteSpace=wrap;html=1;" parent="ZhwHeU2DW-AlFwMiwrjJ-1" vertex="1">
          <mxGeometry x="360" y="-1160" width="85" height="50" as="geometry" />
        </mxCell>
        <mxCell id="ZhwHeU2DW-AlFwMiwrjJ-15" value="Email" style="ellipse;whiteSpace=wrap;html=1;" parent="ZhwHeU2DW-AlFwMiwrjJ-1" vertex="1">
          <mxGeometry x="392.5" y="-1090" width="85" height="50" as="geometry" />
        </mxCell>
        <mxCell id="ZhwHeU2DW-AlFwMiwrjJ-16" value="Address" style="ellipse;whiteSpace=wrap;html=1;" parent="ZhwHeU2DW-AlFwMiwrjJ-1" vertex="1">
          <mxGeometry x="360" y="-1015" width="85" height="50" as="geometry" />
        </mxCell>
        <mxCell id="ZhwHeU2DW-AlFwMiwrjJ-17" value="" style="endArrow=none;html=1;rounded=0;" parent="ZhwHeU2DW-AlFwMiwrjJ-1" source="ZhwHeU2DW-AlFwMiwrjJ-5" target="ZhwHeU2DW-AlFwMiwrjJ-10" edge="1">
          <mxGeometry width="50" height="50" relative="1" as="geometry">
            <mxPoint x="150.5" y="-1020" as="sourcePoint" />
            <mxPoint x="200.5" y="-1070" as="targetPoint" />
          </mxGeometry>
        </mxCell>
        <mxCell id="ZhwHeU2DW-AlFwMiwrjJ-18" value="" style="endArrow=none;html=1;rounded=0;" parent="ZhwHeU2DW-AlFwMiwrjJ-1" source="ZhwHeU2DW-AlFwMiwrjJ-5" target="ZhwHeU2DW-AlFwMiwrjJ-11" edge="1">
          <mxGeometry width="50" height="50" relative="1" as="geometry">
            <mxPoint x="175.5" y="-1145" as="sourcePoint" />
            <mxPoint x="148.5" y="-1133" as="targetPoint" />
          </mxGeometry>
        </mxCell>
        <mxCell id="ZhwHeU2DW-AlFwMiwrjJ-19" value="" style="endArrow=none;html=1;rounded=0;" parent="ZhwHeU2DW-AlFwMiwrjJ-1" source="ZhwHeU2DW-AlFwMiwrjJ-5" target="ZhwHeU2DW-AlFwMiwrjJ-12" edge="1">
          <mxGeometry width="50" height="50" relative="1" as="geometry">
            <mxPoint x="203" y="-1120" as="sourcePoint" />
            <mxPoint x="125.5" y="-1175" as="targetPoint" />
          </mxGeometry>
        </mxCell>
        <mxCell id="ZhwHeU2DW-AlFwMiwrjJ-20" value="" style="endArrow=none;html=1;rounded=0;" parent="ZhwHeU2DW-AlFwMiwrjJ-1" source="ZhwHeU2DW-AlFwMiwrjJ-5" target="ZhwHeU2DW-AlFwMiwrjJ-13" edge="1">
          <mxGeometry width="50" height="50" relative="1" as="geometry">
            <mxPoint x="200.5" y="-1190" as="sourcePoint" />
            <mxPoint x="173.5" y="-1207" as="targetPoint" />
          </mxGeometry>
        </mxCell>
        <mxCell id="ZhwHeU2DW-AlFwMiwrjJ-21" value="" style="endArrow=none;html=1;rounded=0;" parent="ZhwHeU2DW-AlFwMiwrjJ-1" source="ZhwHeU2DW-AlFwMiwrjJ-5" target="ZhwHeU2DW-AlFwMiwrjJ-14" edge="1">
          <mxGeometry width="50" height="50" relative="1" as="geometry">
            <mxPoint x="235.5" y="-1190" as="sourcePoint" />
            <mxPoint x="235.5" y="-1230" as="targetPoint" />
          </mxGeometry>
        </mxCell>
        <mxCell id="ZhwHeU2DW-AlFwMiwrjJ-22" value="" style="endArrow=none;html=1;rounded=0;" parent="ZhwHeU2DW-AlFwMiwrjJ-1" source="ZhwHeU2DW-AlFwMiwrjJ-5" target="ZhwHeU2DW-AlFwMiwrjJ-15" edge="1">
          <mxGeometry width="50" height="50" relative="1" as="geometry">
            <mxPoint x="265.5" y="-1190" as="sourcePoint" />
            <mxPoint x="289.5" y="-1207" as="targetPoint" />
          </mxGeometry>
        </mxCell>
        <mxCell id="ZhwHeU2DW-AlFwMiwrjJ-23" value="" style="endArrow=none;html=1;rounded=0;entryX=0;entryY=0;entryDx=0;entryDy=0;exitX=0.824;exitY=1.004;exitDx=0;exitDy=0;exitPerimeter=0;" parent="ZhwHeU2DW-AlFwMiwrjJ-1" source="ZhwHeU2DW-AlFwMiwrjJ-5" target="ZhwHeU2DW-AlFwMiwrjJ-16" edge="1">
          <mxGeometry width="50" height="50" relative="1" as="geometry">
            <mxPoint x="295.5" y="-1175" as="sourcePoint" />
            <mxPoint x="335.5" y="-1175" as="targetPoint" />
          </mxGeometry>
        </mxCell>
        <mxCell id="ZhwHeU2DW-AlFwMiwrjJ-24" value="In class" style="rhombus;whiteSpace=wrap;html=1;fillColor=#fad7ac;strokeColor=#b46504;" parent="ZhwHeU2DW-AlFwMiwrjJ-1" vertex="1">
          <mxGeometry x="270.99" y="-320" width="110" height="50" as="geometry" />
        </mxCell>
        <mxCell id="ZhwHeU2DW-AlFwMiwrjJ-25" value="&lt;u&gt;Name&lt;/u&gt;" style="ellipse;whiteSpace=wrap;html=1;" parent="ZhwHeU2DW-AlFwMiwrjJ-1" vertex="1">
          <mxGeometry x="526.4300000000001" y="-571.5" width="85" height="50" as="geometry" />
        </mxCell>
        <mxCell id="ZhwHeU2DW-AlFwMiwrjJ-26" value="Name" style="ellipse;whiteSpace=wrap;html=1;" parent="ZhwHeU2DW-AlFwMiwrjJ-1" vertex="1">
          <mxGeometry x="185.99" y="-75" width="85" height="50" as="geometry" />
        </mxCell>
        <mxCell id="ZhwHeU2DW-AlFwMiwrjJ-27" value="&lt;u&gt;ID&lt;/u&gt;" style="ellipse;whiteSpace=wrap;html=1;" parent="ZhwHeU2DW-AlFwMiwrjJ-1" vertex="1">
          <mxGeometry x="282.99" y="-65" width="85" height="50" as="geometry" />
        </mxCell>
        <mxCell id="ZhwHeU2DW-AlFwMiwrjJ-28" value="Phone" style="ellipse;whiteSpace=wrap;html=1;" parent="ZhwHeU2DW-AlFwMiwrjJ-1" vertex="1">
          <mxGeometry x="385.49" y="-65" width="85" height="50" as="geometry" />
        </mxCell>
        <mxCell id="ZhwHeU2DW-AlFwMiwrjJ-29" value="Email" style="ellipse;whiteSpace=wrap;html=1;" parent="ZhwHeU2DW-AlFwMiwrjJ-1" vertex="1">
          <mxGeometry x="110" y="-105" width="85" height="50" as="geometry" />
        </mxCell>
        <mxCell id="ZhwHeU2DW-AlFwMiwrjJ-30" value="Address" style="ellipse;whiteSpace=wrap;html=1;" parent="ZhwHeU2DW-AlFwMiwrjJ-1" vertex="1">
          <mxGeometry x="478.49" y="-115" width="85" height="50" as="geometry" />
        </mxCell>
        <mxCell id="ZhwHeU2DW-AlFwMiwrjJ-31" value="Teacher responsible" style="rhombus;whiteSpace=wrap;html=1;fillColor=#fad7ac;strokeColor=#b46504;" parent="ZhwHeU2DW-AlFwMiwrjJ-1" vertex="1">
          <mxGeometry y="-720" width="150" height="50" as="geometry" />
        </mxCell>
        <mxCell id="ZhwHeU2DW-AlFwMiwrjJ-32" value="" style="endArrow=none;html=1;rounded=0;" parent="ZhwHeU2DW-AlFwMiwrjJ-1" source="ZhwHeU2DW-AlFwMiwrjJ-25" target="ZhwHeU2DW-AlFwMiwrjJ-4" edge="1">
          <mxGeometry width="50" height="50" relative="1" as="geometry">
            <mxPoint x="246.49" y="-480" as="sourcePoint" />
            <mxPoint x="280.49" y="-480" as="targetPoint" />
          </mxGeometry>
        </mxCell>
        <mxCell id="ZhwHeU2DW-AlFwMiwrjJ-33" value="" style="endArrow=none;html=1;rounded=0;entryX=0;entryY=0.75;entryDx=0;entryDy=0;" parent="ZhwHeU2DW-AlFwMiwrjJ-1" source="ZhwHeU2DW-AlFwMiwrjJ-29" target="ZhwHeU2DW-AlFwMiwrjJ-3" edge="1">
          <mxGeometry width="50" height="50" relative="1" as="geometry">
            <mxPoint x="170.49" y="-80.00000000000045" as="sourcePoint" />
            <mxPoint x="321.74" y="-245" as="targetPoint" />
          </mxGeometry>
        </mxCell>
        <mxCell id="ZhwHeU2DW-AlFwMiwrjJ-34" value="" style="endArrow=none;html=1;rounded=0;exitX=1;exitY=0.75;exitDx=0;exitDy=0;entryX=0;entryY=0.5;entryDx=0;entryDy=0;" parent="ZhwHeU2DW-AlFwMiwrjJ-1" source="ZhwHeU2DW-AlFwMiwrjJ-3" target="ZhwHeU2DW-AlFwMiwrjJ-30" edge="1">
          <mxGeometry width="50" height="50" relative="1" as="geometry">
            <mxPoint x="271.74" y="-195" as="sourcePoint" />
            <mxPoint x="321.74" y="-245" as="targetPoint" />
          </mxGeometry>
        </mxCell>
        <mxCell id="ZhwHeU2DW-AlFwMiwrjJ-35" value="" style="endArrow=none;html=1;rounded=0;exitX=1;exitY=0;exitDx=0;exitDy=0;entryX=0.25;entryY=1;entryDx=0;entryDy=0;" parent="ZhwHeU2DW-AlFwMiwrjJ-1" source="ZhwHeU2DW-AlFwMiwrjJ-26" target="ZhwHeU2DW-AlFwMiwrjJ-3" edge="1">
          <mxGeometry width="50" height="50" relative="1" as="geometry">
            <mxPoint x="271.74" y="-195" as="sourcePoint" />
            <mxPoint x="321.74" y="-245" as="targetPoint" />
          </mxGeometry>
        </mxCell>
        <mxCell id="ZhwHeU2DW-AlFwMiwrjJ-36" value="" style="endArrow=none;html=1;rounded=0;exitX=0.5;exitY=0;exitDx=0;exitDy=0;entryX=0.5;entryY=1;entryDx=0;entryDy=0;" parent="ZhwHeU2DW-AlFwMiwrjJ-1" source="ZhwHeU2DW-AlFwMiwrjJ-27" target="ZhwHeU2DW-AlFwMiwrjJ-3" edge="1">
          <mxGeometry width="50" height="50" relative="1" as="geometry">
            <mxPoint x="264.74" y="-98" as="sourcePoint" />
            <mxPoint x="276.74" y="-115" as="targetPoint" />
          </mxGeometry>
        </mxCell>
        <mxCell id="ZhwHeU2DW-AlFwMiwrjJ-37" value="" style="endArrow=none;html=1;rounded=0;exitX=0;exitY=0;exitDx=0;exitDy=0;entryX=0.75;entryY=1;entryDx=0;entryDy=0;" parent="ZhwHeU2DW-AlFwMiwrjJ-1" source="ZhwHeU2DW-AlFwMiwrjJ-28" target="ZhwHeU2DW-AlFwMiwrjJ-3" edge="1">
          <mxGeometry width="50" height="50" relative="1" as="geometry">
            <mxPoint x="264.74" y="-98" as="sourcePoint" />
            <mxPoint x="276.74" y="-115" as="targetPoint" />
          </mxGeometry>
        </mxCell>
        <mxCell id="ZhwHeU2DW-AlFwMiwrjJ-38" value="1" style="endArrow=none;html=1;rounded=0;" parent="ZhwHeU2DW-AlFwMiwrjJ-1" source="ZhwHeU2DW-AlFwMiwrjJ-31" target="ZhwHeU2DW-AlFwMiwrjJ-2" edge="1">
          <mxGeometry x="-0.7372" y="15" width="50" height="50" relative="1" as="geometry">
            <mxPoint x="105" y="-510" as="sourcePoint" />
            <mxPoint x="155" y="-560" as="targetPoint" />
            <mxPoint as="offset" />
          </mxGeometry>
        </mxCell>
        <mxCell id="ZhwHeU2DW-AlFwMiwrjJ-40" value="" style="endArrow=none;html=1;rounded=0;entryX=0;entryY=0.5;entryDx=0;entryDy=0;startArrow=none;exitX=1;exitY=0.5;exitDx=0;exitDy=0;exitPerimeter=0;" parent="ZhwHeU2DW-AlFwMiwrjJ-1" source="ZhwHeU2DW-AlFwMiwrjJ-47" target="ZhwHeU2DW-AlFwMiwrjJ-8" edge="1">
          <mxGeometry width="50" height="50" relative="1" as="geometry">
            <mxPoint x="160" y="-970" as="sourcePoint" />
            <mxPoint x="367.5" y="-900" as="targetPoint" />
          </mxGeometry>
        </mxCell>
        <mxCell id="ZhwHeU2DW-AlFwMiwrjJ-41" value="" style="endArrow=none;html=1;rounded=0;exitX=1;exitY=0.5;exitDx=0;exitDy=0;entryX=0.5;entryY=1;entryDx=0;entryDy=0;startArrow=none;exitPerimeter=0;" parent="ZhwHeU2DW-AlFwMiwrjJ-1" source="ZhwHeU2DW-AlFwMiwrjJ-49" target="ZhwHeU2DW-AlFwMiwrjJ-8" edge="1">
          <mxGeometry width="50" height="50" relative="1" as="geometry">
            <mxPoint x="97.5" y="-940" as="sourcePoint" />
            <mxPoint x="232.5" y="-1015" as="targetPoint" />
          </mxGeometry>
        </mxCell>
        <mxCell id="ZhwHeU2DW-AlFwMiwrjJ-42" value="" style="endArrow=none;html=1;rounded=0;entryX=1;entryY=0.5;entryDx=0;entryDy=0;exitX=1;exitY=0.5;exitDx=0;exitDy=0;startArrow=none;exitPerimeter=0;" parent="ZhwHeU2DW-AlFwMiwrjJ-1" source="ZhwHeU2DW-AlFwMiwrjJ-51" target="ZhwHeU2DW-AlFwMiwrjJ-8" edge="1">
          <mxGeometry width="50" height="50" relative="1" as="geometry">
            <mxPoint x="387.5" y="-920" as="sourcePoint" />
            <mxPoint x="437.5" y="-970" as="targetPoint" />
          </mxGeometry>
        </mxCell>
        <mxCell id="ZhwHeU2DW-AlFwMiwrjJ-43" value="" style="endArrow=none;html=1;rounded=0;entryX=0.5;entryY=1;entryDx=0;entryDy=0;exitX=0.5;exitY=0;exitDx=0;exitDy=0;" parent="ZhwHeU2DW-AlFwMiwrjJ-1" source="ZhwHeU2DW-AlFwMiwrjJ-3" target="ZhwHeU2DW-AlFwMiwrjJ-24" edge="1">
          <mxGeometry width="50" height="50" relative="1" as="geometry">
            <mxPoint x="310.49" y="-290" as="sourcePoint" />
            <mxPoint x="320.49" y="-320" as="targetPoint" />
          </mxGeometry>
        </mxCell>
        <mxCell id="ZhwHeU2DW-AlFwMiwrjJ-44" value="N" style="edgeLabel;html=1;align=center;verticalAlign=middle;resizable=0;points=[];" parent="ZhwHeU2DW-AlFwMiwrjJ-43" connectable="0" vertex="1">
          <mxGeometry x="0.3124" y="2" relative="1" as="geometry">
            <mxPoint x="17" y="-89" as="offset" />
          </mxGeometry>
        </mxCell>
        <mxCell id="ZhwHeU2DW-AlFwMiwrjJ-45" value="N" style="edgeLabel;html=1;align=center;verticalAlign=middle;resizable=0;points=[];" parent="ZhwHeU2DW-AlFwMiwrjJ-43" connectable="0" vertex="1">
          <mxGeometry x="0.2658" y="-3" relative="1" as="geometry">
            <mxPoint x="11" y="-22" as="offset" />
          </mxGeometry>
        </mxCell>
        <mxCell id="ZhwHeU2DW-AlFwMiwrjJ-46" value="" style="endArrow=none;html=1;rounded=0;exitX=1;exitY=0;exitDx=0;exitDy=0;entryX=1;entryY=0.5;entryDx=0;entryDy=0;entryPerimeter=0;" parent="ZhwHeU2DW-AlFwMiwrjJ-1" source="ZhwHeU2DW-AlFwMiwrjJ-7" target="ZhwHeU2DW-AlFwMiwrjJ-47" edge="1">
          <mxGeometry width="50" height="50" relative="1" as="geometry">
            <mxPoint x="87.5" y="-950" as="sourcePoint" />
            <mxPoint x="160" y="-970" as="targetPoint" />
          </mxGeometry>
        </mxCell>
        <mxCell id="ZhwHeU2DW-AlFwMiwrjJ-47" value="" style="shape=requiredInterface;html=1;verticalLabelPosition=bottom;sketch=0;rotation=120;" parent="ZhwHeU2DW-AlFwMiwrjJ-1" vertex="1">
          <mxGeometry x="154" y="-975" width="10" height="20" as="geometry" />
        </mxCell>
        <mxCell id="ZhwHeU2DW-AlFwMiwrjJ-48" value="" style="endArrow=none;html=1;rounded=0;exitX=0.5;exitY=0;exitDx=0;exitDy=0;entryX=1;entryY=0.5;entryDx=0;entryDy=0;entryPerimeter=0;" parent="ZhwHeU2DW-AlFwMiwrjJ-1" source="ZhwHeU2DW-AlFwMiwrjJ-2" target="ZhwHeU2DW-AlFwMiwrjJ-49" edge="1">
          <mxGeometry width="50" height="50" relative="1" as="geometry">
            <mxPoint x="232.5" y="-950" as="sourcePoint" />
            <mxPoint x="233.5" y="-1010" as="targetPoint" />
          </mxGeometry>
        </mxCell>
        <mxCell id="ZhwHeU2DW-AlFwMiwrjJ-49" value="" style="shape=requiredInterface;html=1;verticalLabelPosition=bottom;sketch=0;rotation=90;" parent="ZhwHeU2DW-AlFwMiwrjJ-1" vertex="1">
          <mxGeometry x="227.5" y="-975" width="10" height="20" as="geometry" />
        </mxCell>
        <mxCell id="ZhwHeU2DW-AlFwMiwrjJ-50" value="" style="endArrow=none;html=1;rounded=0;entryX=1;entryY=0.5;entryDx=0;entryDy=0;exitX=0;exitY=0;exitDx=0;exitDy=0;" parent="ZhwHeU2DW-AlFwMiwrjJ-1" source="ZhwHeU2DW-AlFwMiwrjJ-6" target="ZhwHeU2DW-AlFwMiwrjJ-51" edge="1">
          <mxGeometry width="50" height="50" relative="1" as="geometry">
            <mxPoint x="382.5" y="-950" as="sourcePoint" />
            <mxPoint x="248.5" y="-1025" as="targetPoint" />
          </mxGeometry>
        </mxCell>
        <mxCell id="ZhwHeU2DW-AlFwMiwrjJ-51" value="" style="shape=requiredInterface;html=1;verticalLabelPosition=bottom;sketch=0;rotation=30;" parent="ZhwHeU2DW-AlFwMiwrjJ-1" vertex="1">
          <mxGeometry x="313" y="-980" width="10" height="20" as="geometry" />
        </mxCell>
        <mxCell id="ZhwHeU2DW-AlFwMiwrjJ-52" value="Classroom" style="rounded=0;whiteSpace=wrap;html=1;fillColor=#dae8fc;strokeColor=#6C8EBF;" parent="ZhwHeU2DW-AlFwMiwrjJ-1" vertex="1">
          <mxGeometry x="-530" y="-605" width="120" height="60" as="geometry" />
        </mxCell>
        <mxCell id="ZhwHeU2DW-AlFwMiwrjJ-53" value="&lt;u&gt;ID&lt;/u&gt;" style="ellipse;whiteSpace=wrap;html=1;" parent="ZhwHeU2DW-AlFwMiwrjJ-1" vertex="1">
          <mxGeometry x="-495" y="-680" width="85" height="50" as="geometry" />
        </mxCell>
        <mxCell id="ZhwHeU2DW-AlFwMiwrjJ-54" value="" style="endArrow=none;html=1;rounded=0;" parent="ZhwHeU2DW-AlFwMiwrjJ-1" source="ZhwHeU2DW-AlFwMiwrjJ-53" target="ZhwHeU2DW-AlFwMiwrjJ-52" edge="1">
          <mxGeometry width="50" height="50" relative="1" as="geometry">
            <mxPoint x="-13" y="-400" as="sourcePoint" />
            <mxPoint x="37" y="-450" as="targetPoint" />
          </mxGeometry>
        </mxCell>
        <mxCell id="ZhwHeU2DW-AlFwMiwrjJ-55" value="" style="endArrow=none;html=1;rounded=0;" parent="ZhwHeU2DW-AlFwMiwrjJ-1" source="ZhwHeU2DW-AlFwMiwrjJ-73" target="ZhwHeU2DW-AlFwMiwrjJ-135" edge="1">
          <mxGeometry width="50" height="50" relative="1" as="geometry">
            <mxPoint x="-270" y="-370" as="sourcePoint" />
            <mxPoint x="-540" y="-235" as="targetPoint" />
          </mxGeometry>
        </mxCell>
        <mxCell id="ZhwHeU2DW-AlFwMiwrjJ-56" value="&lt;span style=&quot;font-weight: normal;&quot;&gt;End-day&lt;/span&gt;" style="ellipse;whiteSpace=wrap;html=1;" parent="ZhwHeU2DW-AlFwMiwrjJ-1" vertex="1">
          <mxGeometry x="416" y="-635" width="67.5" height="35" as="geometry" />
        </mxCell>
        <mxCell id="ZhwHeU2DW-AlFwMiwrjJ-57" value="" style="endArrow=none;html=1;rounded=0;" parent="ZhwHeU2DW-AlFwMiwrjJ-1" source="ZhwHeU2DW-AlFwMiwrjJ-70" target="ZhwHeU2DW-AlFwMiwrjJ-69" edge="1">
          <mxGeometry width="50" height="50" relative="1" as="geometry">
            <mxPoint x="99.99742047232417" y="-587.0076704437047" as="sourcePoint" />
            <mxPoint x="275.49" y="-510" as="targetPoint" />
          </mxGeometry>
        </mxCell>
        <mxCell id="ZhwHeU2DW-AlFwMiwrjJ-58" value="" style="endArrow=none;html=1;rounded=0;" parent="ZhwHeU2DW-AlFwMiwrjJ-1" source="ZhwHeU2DW-AlFwMiwrjJ-56" target="ZhwHeU2DW-AlFwMiwrjJ-69" edge="1">
          <mxGeometry width="50" height="50" relative="1" as="geometry">
            <mxPoint x="416.49" y="-527" as="sourcePoint" />
            <mxPoint x="395.49" y="-510" as="targetPoint" />
          </mxGeometry>
        </mxCell>
        <mxCell id="ZhwHeU2DW-AlFwMiwrjJ-59" value="Birthday" style="ellipse;whiteSpace=wrap;html=1;" parent="ZhwHeU2DW-AlFwMiwrjJ-1" vertex="1">
          <mxGeometry x="477.5" y="-1130" width="85" height="50" as="geometry" />
        </mxCell>
        <mxCell id="ZhwHeU2DW-AlFwMiwrjJ-60" value="Birthplace" style="ellipse;whiteSpace=wrap;html=1;" parent="ZhwHeU2DW-AlFwMiwrjJ-1" vertex="1">
          <mxGeometry x="478.49" y="-1030" width="85" height="50" as="geometry" />
        </mxCell>
        <mxCell id="ZhwHeU2DW-AlFwMiwrjJ-61" value="" style="endArrow=none;html=1;rounded=0;" parent="ZhwHeU2DW-AlFwMiwrjJ-1" source="ZhwHeU2DW-AlFwMiwrjJ-5" target="ZhwHeU2DW-AlFwMiwrjJ-60" edge="1">
          <mxGeometry width="50" height="50" relative="1" as="geometry">
            <mxPoint x="303.5" y="-1141" as="sourcePoint" />
            <mxPoint x="352.5" y="-1125" as="targetPoint" />
          </mxGeometry>
        </mxCell>
        <mxCell id="ZhwHeU2DW-AlFwMiwrjJ-62" value="" style="endArrow=none;html=1;rounded=0;" parent="ZhwHeU2DW-AlFwMiwrjJ-1" source="ZhwHeU2DW-AlFwMiwrjJ-5" target="ZhwHeU2DW-AlFwMiwrjJ-59" edge="1">
          <mxGeometry width="50" height="50" relative="1" as="geometry">
            <mxPoint x="302.5" y="-1168" as="sourcePoint" />
            <mxPoint x="362.5" y="-1195" as="targetPoint" />
          </mxGeometry>
        </mxCell>
        <mxCell id="ZhwHeU2DW-AlFwMiwrjJ-63" value="Birthday" style="ellipse;whiteSpace=wrap;html=1;" parent="ZhwHeU2DW-AlFwMiwrjJ-1" vertex="1">
          <mxGeometry x="112.99000000000001" y="-165" width="85" height="50" as="geometry" />
        </mxCell>
        <mxCell id="ZhwHeU2DW-AlFwMiwrjJ-64" value="Birthplace" style="ellipse;whiteSpace=wrap;html=1;" parent="ZhwHeU2DW-AlFwMiwrjJ-1" vertex="1">
          <mxGeometry x="478.49" y="-180" width="85" height="50" as="geometry" />
        </mxCell>
        <mxCell id="ZhwHeU2DW-AlFwMiwrjJ-65" value="" style="endArrow=none;html=1;rounded=0;entryX=0;entryY=0.5;entryDx=0;entryDy=0;exitX=0.976;exitY=0.632;exitDx=0;exitDy=0;exitPerimeter=0;" parent="ZhwHeU2DW-AlFwMiwrjJ-1" source="ZhwHeU2DW-AlFwMiwrjJ-63" target="ZhwHeU2DW-AlFwMiwrjJ-3" edge="1">
          <mxGeometry width="50" height="50" relative="1" as="geometry">
            <mxPoint x="200.49" y="-145" as="sourcePoint" />
            <mxPoint x="276.49" y="-130" as="targetPoint" />
          </mxGeometry>
        </mxCell>
        <mxCell id="ZhwHeU2DW-AlFwMiwrjJ-66" value="" style="endArrow=none;html=1;rounded=0;exitX=1;exitY=0.5;exitDx=0;exitDy=0;entryX=0;entryY=0.5;entryDx=0;entryDy=0;" parent="ZhwHeU2DW-AlFwMiwrjJ-1" source="ZhwHeU2DW-AlFwMiwrjJ-3" target="ZhwHeU2DW-AlFwMiwrjJ-64" edge="1">
          <mxGeometry width="50" height="50" relative="1" as="geometry">
            <mxPoint x="396.49" y="-130" as="sourcePoint" />
            <mxPoint x="480.49" y="-90" as="targetPoint" />
          </mxGeometry>
        </mxCell>
        <mxCell id="ZhwHeU2DW-AlFwMiwrjJ-69" value="Period" style="ellipse;whiteSpace=wrap;html=1;" parent="ZhwHeU2DW-AlFwMiwrjJ-1" vertex="1">
          <mxGeometry x="407.25" y="-580" width="85" height="50" as="geometry" />
        </mxCell>
        <mxCell id="ZhwHeU2DW-AlFwMiwrjJ-70" value="Start-day" style="ellipse;whiteSpace=wrap;html=1;" parent="ZhwHeU2DW-AlFwMiwrjJ-1" vertex="1">
          <mxGeometry x="500.24" y="-610" width="67.5" height="35" as="geometry" />
        </mxCell>
        <mxCell id="ZhwHeU2DW-AlFwMiwrjJ-71" value="" style="endArrow=none;html=1;rounded=0;" parent="ZhwHeU2DW-AlFwMiwrjJ-1" source="ZhwHeU2DW-AlFwMiwrjJ-4" target="ZhwHeU2DW-AlFwMiwrjJ-69" edge="1">
          <mxGeometry width="50" height="50" relative="1" as="geometry">
            <mxPoint x="372.49" y="-527" as="sourcePoint" />
            <mxPoint x="365.49" y="-510" as="targetPoint" />
          </mxGeometry>
        </mxCell>
        <mxCell id="ZhwHeU2DW-AlFwMiwrjJ-73" value="Session" style="shape=ext;margin=3;double=1;whiteSpace=wrap;html=1;align=center;fillColor=#DAE8FC;strokeColor=#6C8EBF;" parent="ZhwHeU2DW-AlFwMiwrjJ-1" vertex="1">
          <mxGeometry x="-330" y="-400" width="100" height="40" as="geometry" />
        </mxCell>
        <mxCell id="ZhwHeU2DW-AlFwMiwrjJ-74" value="N" style="endArrow=none;html=1;rounded=0;shape=link;" parent="ZhwHeU2DW-AlFwMiwrjJ-1" source="ZhwHeU2DW-AlFwMiwrjJ-73" target="01Y2CtogWcS1jGO3ZOfH-6" edge="1">
          <mxGeometry x="0.8181" y="14" width="50" height="50" relative="1" as="geometry">
            <mxPoint x="-220" y="-415" as="sourcePoint" />
            <mxPoint x="25.724043715847074" y="-423.98907103825104" as="targetPoint" />
            <mxPoint as="offset" />
          </mxGeometry>
        </mxCell>
        <mxCell id="ZhwHeU2DW-AlFwMiwrjJ-75" value="" style="endArrow=none;html=1;rounded=0;" parent="ZhwHeU2DW-AlFwMiwrjJ-1" source="01Y2CtogWcS1jGO3ZOfH-6" target="ZhwHeU2DW-AlFwMiwrjJ-4" edge="1">
          <mxGeometry width="50" height="50" relative="1" as="geometry">
            <mxPoint x="103.88413805482196" y="-438.46175542962646" as="sourcePoint" />
            <mxPoint x="518.49" y="-720" as="targetPoint" />
          </mxGeometry>
        </mxCell>
        <mxCell id="ZhwHeU2DW-AlFwMiwrjJ-76" value="1" style="edgeLabel;html=1;align=center;verticalAlign=middle;resizable=0;points=[];" parent="ZhwHeU2DW-AlFwMiwrjJ-75" connectable="0" vertex="1">
          <mxGeometry x="-0.5819" y="1" relative="1" as="geometry">
            <mxPoint x="-13" y="-8" as="offset" />
          </mxGeometry>
        </mxCell>
        <mxCell id="ZhwHeU2DW-AlFwMiwrjJ-77" value="&lt;span style=&quot;border-bottom: 1px dotted&quot;&gt;RoomID&lt;/span&gt;" style="ellipse;whiteSpace=wrap;html=1;align=center;" parent="ZhwHeU2DW-AlFwMiwrjJ-1" vertex="1">
          <mxGeometry x="-410" y="-210" width="80" height="40" as="geometry" />
        </mxCell>
        <mxCell id="ZhwHeU2DW-AlFwMiwrjJ-78" value="" style="endArrow=none;html=1;rounded=0;" parent="ZhwHeU2DW-AlFwMiwrjJ-1" source="ZhwHeU2DW-AlFwMiwrjJ-77" target="ZhwHeU2DW-AlFwMiwrjJ-73" edge="1">
          <mxGeometry width="50" height="50" relative="1" as="geometry">
            <mxPoint x="-246" y="-520" as="sourcePoint" />
            <mxPoint x="-189" y="-495" as="targetPoint" />
          </mxGeometry>
        </mxCell>
        <mxCell id="ZhwHeU2DW-AlFwMiwrjJ-79" value="" style="endArrow=none;html=1;rounded=0;" parent="ZhwHeU2DW-AlFwMiwrjJ-1" source="ZhwHeU2DW-AlFwMiwrjJ-3" target="ZhwHeU2DW-AlFwMiwrjJ-85" edge="1">
          <mxGeometry width="50" height="50" relative="1" as="geometry">
            <mxPoint x="336.49" y="-230" as="sourcePoint" />
            <mxPoint x="336.49" y="-260" as="targetPoint" />
          </mxGeometry>
        </mxCell>
        <mxCell id="ZhwHeU2DW-AlFwMiwrjJ-80" value="N" style="edgeLabel;html=1;align=center;verticalAlign=middle;resizable=0;points=[];" parent="ZhwHeU2DW-AlFwMiwrjJ-79" connectable="0" vertex="1">
          <mxGeometry x="0.2658" y="-3" relative="1" as="geometry">
            <mxPoint x="63" y="-25" as="offset" />
          </mxGeometry>
        </mxCell>
        <mxCell id="ZhwHeU2DW-AlFwMiwrjJ-81" value="Status" style="ellipse;whiteSpace=wrap;html=1;" parent="ZhwHeU2DW-AlFwMiwrjJ-1" vertex="1">
          <mxGeometry x="645.49" y="-435" width="85" height="50" as="geometry" />
        </mxCell>
        <mxCell id="ZhwHeU2DW-AlFwMiwrjJ-82" value="Note" style="ellipse;whiteSpace=wrap;html=1;" parent="ZhwHeU2DW-AlFwMiwrjJ-1" vertex="1">
          <mxGeometry x="645.49" y="-350" width="85" height="50" as="geometry" />
        </mxCell>
        <mxCell id="ZhwHeU2DW-AlFwMiwrjJ-83" value="" style="endArrow=none;html=1;rounded=0;" parent="ZhwHeU2DW-AlFwMiwrjJ-1" source="ZhwHeU2DW-AlFwMiwrjJ-81" target="ZhwHeU2DW-AlFwMiwrjJ-85" edge="1">
          <mxGeometry width="50" height="50" relative="1" as="geometry">
            <mxPoint x="275.49" y="-495" as="sourcePoint" />
            <mxPoint x="199.49" y="-500" as="targetPoint" />
          </mxGeometry>
        </mxCell>
        <mxCell id="ZhwHeU2DW-AlFwMiwrjJ-84" value="" style="endArrow=none;html=1;rounded=0;" parent="ZhwHeU2DW-AlFwMiwrjJ-1" source="ZhwHeU2DW-AlFwMiwrjJ-82" target="ZhwHeU2DW-AlFwMiwrjJ-85" edge="1">
          <mxGeometry width="50" height="50" relative="1" as="geometry">
            <mxPoint x="695.49" y="-345" as="sourcePoint" />
            <mxPoint x="641.49" y="-378" as="targetPoint" />
          </mxGeometry>
        </mxCell>
        <mxCell id="ZhwHeU2DW-AlFwMiwrjJ-85" value="Student attendance" style="rhombus;whiteSpace=wrap;html=1;fillColor=#fad7ac;strokeColor=#b46504;" parent="ZhwHeU2DW-AlFwMiwrjJ-1" vertex="1">
          <mxGeometry x="500.24" y="-395" width="130" height="50" as="geometry" />
        </mxCell>
        <mxCell id="ZhwHeU2DW-AlFwMiwrjJ-88" value="Status" style="ellipse;whiteSpace=wrap;html=1;" parent="ZhwHeU2DW-AlFwMiwrjJ-1" vertex="1">
          <mxGeometry x="414" y="-515" width="85" height="50" as="geometry" />
        </mxCell>
        <mxCell id="ZhwHeU2DW-AlFwMiwrjJ-89" value="" style="endArrow=none;html=1;rounded=0;" parent="ZhwHeU2DW-AlFwMiwrjJ-1" source="ZhwHeU2DW-AlFwMiwrjJ-88" target="ZhwHeU2DW-AlFwMiwrjJ-4" edge="1">
          <mxGeometry width="50" height="50" relative="1" as="geometry">
            <mxPoint x="280.49" y="-547" as="sourcePoint" />
            <mxPoint x="297.49" y="-509" as="targetPoint" />
          </mxGeometry>
        </mxCell>
        <mxCell id="ZhwHeU2DW-AlFwMiwrjJ-90" value="Need to check if the student belongs to the session&#39;s class in this table" style="text;html=1;strokeColor=none;fillColor=none;align=center;verticalAlign=middle;whiteSpace=wrap;rounded=0;" parent="ZhwHeU2DW-AlFwMiwrjJ-1" vertex="1">
          <mxGeometry x="509.75" y="-462.5" width="122.61" height="45" as="geometry" />
        </mxCell>
        <mxCell id="ZhwHeU2DW-AlFwMiwrjJ-91" value="Need to check if `Date` is in the class&#39;s period time" style="text;html=1;strokeColor=none;fillColor=none;align=center;verticalAlign=middle;whiteSpace=wrap;rounded=0;" parent="ZhwHeU2DW-AlFwMiwrjJ-1" vertex="1">
          <mxGeometry x="-326.25" y="-155" width="120" height="40" as="geometry" />
        </mxCell>
        <mxCell id="ZhwHeU2DW-AlFwMiwrjJ-100" value="Status" style="ellipse;whiteSpace=wrap;html=1;" parent="ZhwHeU2DW-AlFwMiwrjJ-1" vertex="1">
          <mxGeometry x="645.49" y="-435" width="85" height="50" as="geometry" />
        </mxCell>
        <mxCell id="ZhwHeU2DW-AlFwMiwrjJ-107" value="Max of seat" style="ellipse;whiteSpace=wrap;html=1;" parent="ZhwHeU2DW-AlFwMiwrjJ-1" vertex="1">
          <mxGeometry x="-600" y="-670" width="85" height="50" as="geometry" />
        </mxCell>
        <mxCell id="ZhwHeU2DW-AlFwMiwrjJ-108" value="" style="endArrow=none;html=1;rounded=0;" parent="ZhwHeU2DW-AlFwMiwrjJ-1" source="ZhwHeU2DW-AlFwMiwrjJ-107" target="ZhwHeU2DW-AlFwMiwrjJ-52" edge="1">
          <mxGeometry width="50" height="50" relative="1" as="geometry">
            <mxPoint x="-434" y="-660" as="sourcePoint" />
            <mxPoint x="-452" y="-595" as="targetPoint" />
          </mxGeometry>
        </mxCell>
        <mxCell id="ZhwHeU2DW-AlFwMiwrjJ-111" value="Maximum number of students" style="ellipse;whiteSpace=wrap;html=1;" parent="ZhwHeU2DW-AlFwMiwrjJ-1" vertex="1">
          <mxGeometry x="390" y="-445" width="102.25" height="50" as="geometry" />
        </mxCell>
        <mxCell id="ZhwHeU2DW-AlFwMiwrjJ-112" value="" style="endArrow=none;html=1;rounded=0;" parent="ZhwHeU2DW-AlFwMiwrjJ-1" source="ZhwHeU2DW-AlFwMiwrjJ-111" target="ZhwHeU2DW-AlFwMiwrjJ-4" edge="1">
          <mxGeometry width="50" height="50" relative="1" as="geometry">
            <mxPoint x="435" y="-546" as="sourcePoint" />
            <mxPoint x="380" y="-510" as="targetPoint" />
          </mxGeometry>
        </mxCell>
        <mxCell id="ZhwHeU2DW-AlFwMiwrjJ-113" value="Status" style="ellipse;whiteSpace=wrap;html=1;align=center;" parent="ZhwHeU2DW-AlFwMiwrjJ-1" vertex="1">
          <mxGeometry x="-260" y="-283" width="80" height="40" as="geometry" />
        </mxCell>
        <mxCell id="ZhwHeU2DW-AlFwMiwrjJ-114" value="" style="endArrow=none;html=1;rounded=0;" parent="ZhwHeU2DW-AlFwMiwrjJ-1" source="ZhwHeU2DW-AlFwMiwrjJ-113" target="ZhwHeU2DW-AlFwMiwrjJ-73" edge="1">
          <mxGeometry width="50" height="50" relative="1" as="geometry">
            <mxPoint x="-355" y="-428" as="sourcePoint" />
            <mxPoint x="-299" y="-390" as="targetPoint" />
          </mxGeometry>
        </mxCell>
        <mxCell id="ZhwHeU2DW-AlFwMiwrjJ-115" value="Make up for" style="rhombus;whiteSpace=wrap;html=1;fillColor=#fad7ac;strokeColor=#b46504;" parent="ZhwHeU2DW-AlFwMiwrjJ-1" vertex="1">
          <mxGeometry x="-570" y="-190" width="130" height="50" as="geometry" />
        </mxCell>
        <mxCell id="ZhwHeU2DW-AlFwMiwrjJ-116" value="1" style="endArrow=none;html=1;rounded=0;entryX=0;entryY=0;entryDx=0;entryDy=0;" parent="ZhwHeU2DW-AlFwMiwrjJ-1" source="ZhwHeU2DW-AlFwMiwrjJ-73" target="ZhwHeU2DW-AlFwMiwrjJ-115" edge="1">
          <mxGeometry x="0.9477" y="-10" width="50" height="50" relative="1" as="geometry">
            <mxPoint x="-298" y="-400" as="sourcePoint" />
            <mxPoint x="-100" y="-570" as="targetPoint" />
            <mxPoint as="offset" />
          </mxGeometry>
        </mxCell>
        <mxCell id="ZhwHeU2DW-AlFwMiwrjJ-117" value="" style="endArrow=none;html=1;rounded=0;entryX=0.82;entryY=0.266;entryDx=0;entryDy=0;entryPerimeter=0;" parent="ZhwHeU2DW-AlFwMiwrjJ-1" source="ZhwHeU2DW-AlFwMiwrjJ-73" target="ZhwHeU2DW-AlFwMiwrjJ-115" edge="1">
          <mxGeometry width="50" height="50" relative="1" as="geometry">
            <mxPoint x="-277" y="-390" as="sourcePoint" />
            <mxPoint x="-335" y="-554" as="targetPoint" />
          </mxGeometry>
        </mxCell>
        <mxCell id="ZhwHeU2DW-AlFwMiwrjJ-118" value="1" style="edgeLabel;html=1;align=center;verticalAlign=middle;resizable=0;points=[];" parent="ZhwHeU2DW-AlFwMiwrjJ-117" connectable="0" vertex="1">
          <mxGeometry x="0.2458" y="-3" relative="1" as="geometry">
            <mxPoint x="-47" y="68" as="offset" />
          </mxGeometry>
        </mxCell>
        <mxCell id="ZhwHeU2DW-AlFwMiwrjJ-126" value="Timetable" style="rounded=0;whiteSpace=wrap;html=1;fillColor=#dae8fc;strokeColor=#6c8ebf;" parent="ZhwHeU2DW-AlFwMiwrjJ-1" vertex="1">
          <mxGeometry x="-780" y="-460" width="120" height="60" as="geometry" />
        </mxCell>
        <mxCell id="ZhwHeU2DW-AlFwMiwrjJ-127" value="Start-hour" style="ellipse;whiteSpace=wrap;html=1;" parent="ZhwHeU2DW-AlFwMiwrjJ-1" vertex="1">
          <mxGeometry x="-695" y="-635" width="85" height="50" as="geometry" />
        </mxCell>
        <mxCell id="ZhwHeU2DW-AlFwMiwrjJ-128" value="" style="endArrow=none;html=1;rounded=0;" parent="ZhwHeU2DW-AlFwMiwrjJ-1" source="ZhwHeU2DW-AlFwMiwrjJ-132" target="ZhwHeU2DW-AlFwMiwrjJ-127" edge="1">
          <mxGeometry width="50" height="50" relative="1" as="geometry">
            <mxPoint x="-980" y="-179.5" as="sourcePoint" />
            <mxPoint x="-1124" y="-227.5" as="targetPoint" />
          </mxGeometry>
        </mxCell>
        <mxCell id="ZhwHeU2DW-AlFwMiwrjJ-129" value="End-hour" style="ellipse;whiteSpace=wrap;html=1;" parent="ZhwHeU2DW-AlFwMiwrjJ-1" vertex="1">
          <mxGeometry x="-780" y="-660" width="85" height="50" as="geometry" />
        </mxCell>
        <mxCell id="ZhwHeU2DW-AlFwMiwrjJ-130" value="" style="endArrow=none;html=1;rounded=0;" parent="ZhwHeU2DW-AlFwMiwrjJ-1" source="ZhwHeU2DW-AlFwMiwrjJ-132" target="ZhwHeU2DW-AlFwMiwrjJ-129" edge="1">
          <mxGeometry width="50" height="50" relative="1" as="geometry">
            <mxPoint x="-958" y="-191.5" as="sourcePoint" />
            <mxPoint x="-1249" y="-197.5" as="targetPoint" />
          </mxGeometry>
        </mxCell>
        <mxCell id="ZhwHeU2DW-AlFwMiwrjJ-132" value="Period" style="ellipse;whiteSpace=wrap;html=1;" parent="ZhwHeU2DW-AlFwMiwrjJ-1" vertex="1">
          <mxGeometry x="-770" y="-571.5" width="85" height="50" as="geometry" />
        </mxCell>
        <mxCell id="ZhwHeU2DW-AlFwMiwrjJ-133" value="" style="endArrow=none;html=1;rounded=0;" parent="ZhwHeU2DW-AlFwMiwrjJ-1" source="ZhwHeU2DW-AlFwMiwrjJ-132" target="ZhwHeU2DW-AlFwMiwrjJ-126" edge="1">
          <mxGeometry width="50" height="50" relative="1" as="geometry">
            <mxPoint x="-950" y="-162" as="sourcePoint" />
            <mxPoint x="-1011" y="-183" as="targetPoint" />
          </mxGeometry>
        </mxCell>
        <mxCell id="ZhwHeU2DW-AlFwMiwrjJ-135" value="Date" style="ellipse;whiteSpace=wrap;html=1;align=center;" parent="ZhwHeU2DW-AlFwMiwrjJ-1" vertex="1">
          <mxGeometry x="-310" y="-205" width="80" height="40" as="geometry" />
        </mxCell>
        <mxCell id="ZhwHeU2DW-AlFwMiwrjJ-140" value="" style="endArrow=none;html=1;rounded=0;" parent="ZhwHeU2DW-AlFwMiwrjJ-1" source="ZhwHeU2DW-AlFwMiwrjJ-4" target="ZhwHeU2DW-AlFwMiwrjJ-24" edge="1">
          <mxGeometry width="50" height="50" relative="1" as="geometry">
            <mxPoint x="335" y="-510" as="sourcePoint" />
            <mxPoint x="335" y="-690" as="targetPoint" />
          </mxGeometry>
        </mxCell>
        <mxCell id="_Ey7u8BmT_JralRfA2Q6-3" value="Supervisor responsible" style="rhombus;whiteSpace=wrap;html=1;fillColor=#fad7ac;strokeColor=#b46504;" parent="ZhwHeU2DW-AlFwMiwrjJ-1" vertex="1">
          <mxGeometry x="381.5" y="-770" width="150" height="50" as="geometry" />
        </mxCell>
        <mxCell id="_Ey7u8BmT_JralRfA2Q6-4" value="1" style="endArrow=none;html=1;rounded=0;" parent="ZhwHeU2DW-AlFwMiwrjJ-1" source="_Ey7u8BmT_JralRfA2Q6-3" target="ZhwHeU2DW-AlFwMiwrjJ-6" edge="1">
          <mxGeometry x="-0.7372" y="15" width="50" height="50" relative="1" as="geometry">
            <mxPoint x="164" y="-722" as="sourcePoint" />
            <mxPoint x="230" y="-880" as="targetPoint" />
            <mxPoint as="offset" />
          </mxGeometry>
        </mxCell>
        <mxCell id="_Ey7u8BmT_JralRfA2Q6-8" value="Status" style="ellipse;whiteSpace=wrap;html=1;" parent="ZhwHeU2DW-AlFwMiwrjJ-1" vertex="1">
          <mxGeometry x="-110" y="-840" width="85" height="50" as="geometry" />
        </mxCell>
        <mxCell id="_Ey7u8BmT_JralRfA2Q6-9" value="Note" style="ellipse;whiteSpace=wrap;html=1;" parent="ZhwHeU2DW-AlFwMiwrjJ-1" vertex="1">
          <mxGeometry x="-180" y="-770" width="85" height="34" as="geometry" />
        </mxCell>
        <mxCell id="_Ey7u8BmT_JralRfA2Q6-10" value="Teacher attendance" style="ellipse;whiteSpace=wrap;html=1;" parent="ZhwHeU2DW-AlFwMiwrjJ-1" vertex="1">
          <mxGeometry x="-71" y="-770" width="91" height="40" as="geometry" />
        </mxCell>
        <mxCell id="_Ey7u8BmT_JralRfA2Q6-12" value="" style="endArrow=none;html=1;rounded=0;" parent="ZhwHeU2DW-AlFwMiwrjJ-1" source="ZhwHeU2DW-AlFwMiwrjJ-31" target="_Ey7u8BmT_JralRfA2Q6-10" edge="1">
          <mxGeometry width="50" height="50" relative="1" as="geometry">
            <mxPoint x="372" y="-708" as="sourcePoint" />
            <mxPoint x="458" y="-739" as="targetPoint" />
          </mxGeometry>
        </mxCell>
        <mxCell id="_Ey7u8BmT_JralRfA2Q6-13" value="" style="endArrow=none;html=1;rounded=0;" parent="ZhwHeU2DW-AlFwMiwrjJ-1" source="_Ey7u8BmT_JralRfA2Q6-10" target="_Ey7u8BmT_JralRfA2Q6-8" edge="1">
          <mxGeometry width="50" height="50" relative="1" as="geometry">
            <mxPoint x="388" y="-687" as="sourcePoint" />
            <mxPoint x="427" y="-682" as="targetPoint" />
          </mxGeometry>
        </mxCell>
        <mxCell id="_Ey7u8BmT_JralRfA2Q6-14" value="" style="endArrow=none;html=1;rounded=0;" parent="ZhwHeU2DW-AlFwMiwrjJ-1" source="_Ey7u8BmT_JralRfA2Q6-10" target="_Ey7u8BmT_JralRfA2Q6-9" edge="1">
          <mxGeometry width="50" height="50" relative="1" as="geometry">
            <mxPoint x="502" y="-685" as="sourcePoint" />
            <mxPoint x="559" y="-700" as="targetPoint" />
          </mxGeometry>
        </mxCell>
        <mxCell id="01Y2CtogWcS1jGO3ZOfH-0" value="" style="endArrow=none;html=1;rounded=0;" parent="ZhwHeU2DW-AlFwMiwrjJ-1" source="ZhwHeU2DW-AlFwMiwrjJ-5" target="01Y2CtogWcS1jGO3ZOfH-1" edge="1">
          <mxGeometry width="50" height="50" relative="1" as="geometry">
            <mxPoint x="173" y="-1185" as="sourcePoint" />
            <mxPoint x="100" y="-1110" as="targetPoint" />
          </mxGeometry>
        </mxCell>
        <mxCell id="01Y2CtogWcS1jGO3ZOfH-1" value="SSN" style="ellipse;whiteSpace=wrap;html=1;" parent="ZhwHeU2DW-AlFwMiwrjJ-1" vertex="1">
          <mxGeometry x="25" y="-1050" width="85" height="50" as="geometry" />
        </mxCell>
        <mxCell id="01Y2CtogWcS1jGO3ZOfH-2" value="" style="endArrow=none;html=1;rounded=0;" parent="ZhwHeU2DW-AlFwMiwrjJ-1" source="ZhwHeU2DW-AlFwMiwrjJ-73" target="ZhwHeU2DW-AlFwMiwrjJ-31" edge="1">
          <mxGeometry width="50" height="50" relative="1" as="geometry">
            <mxPoint x="-278" y="-390" as="sourcePoint" />
            <mxPoint x="-321" y="-492" as="targetPoint" />
          </mxGeometry>
        </mxCell>
        <mxCell id="01Y2CtogWcS1jGO3ZOfH-3" value="N" style="edgeLabel;html=1;align=center;verticalAlign=middle;resizable=0;points=[];" parent="01Y2CtogWcS1jGO3ZOfH-2" connectable="0" vertex="1">
          <mxGeometry x="0.2458" y="-3" relative="1" as="geometry">
            <mxPoint x="83" y="-94" as="offset" />
          </mxGeometry>
        </mxCell>
        <mxCell id="01Y2CtogWcS1jGO3ZOfH-4" value="" style="endArrow=none;html=1;rounded=0;" parent="ZhwHeU2DW-AlFwMiwrjJ-1" source="ZhwHeU2DW-AlFwMiwrjJ-73" target="_Ey7u8BmT_JralRfA2Q6-3" edge="1">
          <mxGeometry width="50" height="50" relative="1" as="geometry">
            <mxPoint x="-244" y="-390" as="sourcePoint" />
            <mxPoint x="132" y="-683" as="targetPoint" />
          </mxGeometry>
        </mxCell>
        <mxCell id="01Y2CtogWcS1jGO3ZOfH-5" value="N" style="edgeLabel;html=1;align=center;verticalAlign=middle;resizable=0;points=[];" parent="01Y2CtogWcS1jGO3ZOfH-4" connectable="0" vertex="1">
          <mxGeometry x="0.2458" y="-3" relative="1" as="geometry">
            <mxPoint x="205" y="-125" as="offset" />
          </mxGeometry>
        </mxCell>
        <mxCell id="01Y2CtogWcS1jGO3ZOfH-6" value="Have" style="shape=rhombus;double=1;perimeter=rhombusPerimeter;whiteSpace=wrap;html=1;align=center;fillColor=#FAD7AC;strokeColor=#B46504;" parent="ZhwHeU2DW-AlFwMiwrjJ-1" vertex="1">
          <mxGeometry x="2.5" y="-470" width="120" height="60" as="geometry" />
        </mxCell>
        <mxCell id="tKnq8dVepf-utCEXewpT-0" value="Note" style="ellipse;whiteSpace=wrap;html=1;" parent="ZhwHeU2DW-AlFwMiwrjJ-1" vertex="1">
          <mxGeometry x="-160" y="-304" width="85" height="34" as="geometry" />
        </mxCell>
        <mxCell id="UCymDucayZrGFGS8X2yc-0" value="" style="endArrow=none;html=1;rounded=0;" parent="ZhwHeU2DW-AlFwMiwrjJ-1" source="ZhwHeU2DW-AlFwMiwrjJ-73" target="tKnq8dVepf-utCEXewpT-0" edge="1">
          <mxGeometry width="50" height="50" relative="1" as="geometry">
            <mxPoint x="-271" y="-350" as="sourcePoint" />
            <mxPoint x="-279" y="-175" as="targetPoint" />
          </mxGeometry>
        </mxCell>
        <mxCell id="UCymDucayZrGFGS8X2yc-8" value="In" style="rhombus;whiteSpace=wrap;html=1;fillColor=#fad7ac;strokeColor=#b46504;" parent="ZhwHeU2DW-AlFwMiwrjJ-1" vertex="1">
          <mxGeometry x="-440" y="-515" width="130" height="50" as="geometry" />
        </mxCell>
        <mxCell id="UCymDucayZrGFGS8X2yc-10" value="In" style="rhombus;whiteSpace=wrap;html=1;fillColor=#fad7ac;strokeColor=#b46504;" parent="ZhwHeU2DW-AlFwMiwrjJ-1" vertex="1">
          <mxGeometry x="-550" y="-435" width="130" height="50" as="geometry" />
        </mxCell>
        <mxCell id="UCymDucayZrGFGS8X2yc-11" value="N" style="endArrow=none;html=1;rounded=0;shape=link;" parent="ZhwHeU2DW-AlFwMiwrjJ-1" source="ZhwHeU2DW-AlFwMiwrjJ-73" target="UCymDucayZrGFGS8X2yc-8" edge="1">
          <mxGeometry x="0.8181" y="14" width="50" height="50" relative="1" as="geometry">
            <mxPoint x="-426" y="-535" as="sourcePoint" />
            <mxPoint x="-385" y="-497" as="targetPoint" />
            <mxPoint as="offset" />
          </mxGeometry>
        </mxCell>
        <mxCell id="UCymDucayZrGFGS8X2yc-12" value="N" style="endArrow=none;html=1;rounded=0;shape=link;" parent="ZhwHeU2DW-AlFwMiwrjJ-1" source="ZhwHeU2DW-AlFwMiwrjJ-73" target="UCymDucayZrGFGS8X2yc-10" edge="1">
          <mxGeometry x="0.8134" y="14" width="50" height="50" relative="1" as="geometry">
            <mxPoint x="-287" y="-390" as="sourcePoint" />
            <mxPoint x="-349" y="-461" as="targetPoint" />
            <mxPoint as="offset" />
          </mxGeometry>
        </mxCell>
        <mxCell id="UCymDucayZrGFGS8X2yc-13" value="" style="endArrow=none;html=1;rounded=0;" parent="ZhwHeU2DW-AlFwMiwrjJ-1" source="UCymDucayZrGFGS8X2yc-10" target="ZhwHeU2DW-AlFwMiwrjJ-126" edge="1">
          <mxGeometry width="50" height="50" relative="1" as="geometry">
            <mxPoint x="116" y="-438" as="sourcePoint" />
            <mxPoint x="275" y="-469" as="targetPoint" />
          </mxGeometry>
        </mxCell>
        <mxCell id="UCymDucayZrGFGS8X2yc-14" value="1" style="edgeLabel;html=1;align=center;verticalAlign=middle;resizable=0;points=[];" parent="UCymDucayZrGFGS8X2yc-13" connectable="0" vertex="1">
          <mxGeometry x="-0.5819" y="1" relative="1" as="geometry">
            <mxPoint x="-6" y="-14" as="offset" />
          </mxGeometry>
        </mxCell>
        <mxCell id="UCymDucayZrGFGS8X2yc-15" value="" style="endArrow=none;html=1;rounded=0;" parent="ZhwHeU2DW-AlFwMiwrjJ-1" source="UCymDucayZrGFGS8X2yc-8" target="ZhwHeU2DW-AlFwMiwrjJ-52" edge="1">
          <mxGeometry width="50" height="50" relative="1" as="geometry">
            <mxPoint x="-385" y="-497" as="sourcePoint" />
            <mxPoint x="-426" y="-535" as="targetPoint" />
          </mxGeometry>
        </mxCell>
        <mxCell id="UCymDucayZrGFGS8X2yc-16" value="1" style="edgeLabel;html=1;align=center;verticalAlign=middle;resizable=0;points=[];" parent="UCymDucayZrGFGS8X2yc-15" connectable="0" vertex="1">
          <mxGeometry x="-0.5819" y="1" relative="1" as="geometry">
            <mxPoint x="-26" y="-5" as="offset" />
          </mxGeometry>
        </mxCell>
        <mxCell id="UCymDucayZrGFGS8X2yc-17" value="N" style="endArrow=none;html=1;rounded=0;" parent="ZhwHeU2DW-AlFwMiwrjJ-1" source="UCymDucayZrGFGS8X2yc-18" target="ZhwHeU2DW-AlFwMiwrjJ-2" edge="1">
          <mxGeometry x="-0.9293" y="24" width="50" height="50" relative="1" as="geometry">
            <mxPoint x="270" y="-670" as="sourcePoint" />
            <mxPoint x="222" y="-880" as="targetPoint" />
            <mxPoint y="-1" as="offset" />
          </mxGeometry>
        </mxCell>
        <mxCell id="UCymDucayZrGFGS8X2yc-18" value="Teach" style="rhombus;whiteSpace=wrap;html=1;fillColor=#fad7ac;strokeColor=#b46504;" parent="ZhwHeU2DW-AlFwMiwrjJ-1" vertex="1">
          <mxGeometry x="173" y="-780" width="150" height="50" as="geometry" />
        </mxCell>
        <mxCell id="UCymDucayZrGFGS8X2yc-19" value="N" style="endArrow=none;html=1;rounded=0;" parent="ZhwHeU2DW-AlFwMiwrjJ-1" source="UCymDucayZrGFGS8X2yc-18" target="ZhwHeU2DW-AlFwMiwrjJ-4" edge="1">
          <mxGeometry x="-0.9293" y="24" width="50" height="50" relative="1" as="geometry">
            <mxPoint x="256" y="-769" as="sourcePoint" />
            <mxPoint x="245" y="-880" as="targetPoint" />
            <mxPoint y="-1" as="offset" />
          </mxGeometry>
        </mxCell>
        <mxCell id="UCymDucayZrGFGS8X2yc-27" value="&lt;u&gt;ID&lt;/u&gt;" style="ellipse;whiteSpace=wrap;html=1;" parent="ZhwHeU2DW-AlFwMiwrjJ-1" vertex="1">
          <mxGeometry x="-780" y="-360" width="85" height="50" as="geometry" />
        </mxCell>
        <mxCell id="UCymDucayZrGFGS8X2yc-29" value="" style="endArrow=none;html=1;rounded=0;" parent="ZhwHeU2DW-AlFwMiwrjJ-1" source="UCymDucayZrGFGS8X2yc-27" target="ZhwHeU2DW-AlFwMiwrjJ-126" edge="1">
          <mxGeometry width="50" height="50" relative="1" as="geometry">
            <mxPoint x="-723" y="-500" as="sourcePoint" />
            <mxPoint x="-715" y="-450" as="targetPoint" />
          </mxGeometry>
        </mxCell>
        <mxCell id="UCymDucayZrGFGS8X2yc-31" value="Initial number of sessions" style="ellipse;whiteSpace=wrap;html=1;align=center;" parent="ZhwHeU2DW-AlFwMiwrjJ-1" vertex="1">
          <mxGeometry x="307.25" y="-621.5" width="100" height="50" as="geometry" />
        </mxCell>
        <mxCell id="UCymDucayZrGFGS8X2yc-33" value="" style="endArrow=none;html=1;rounded=0;" parent="ZhwHeU2DW-AlFwMiwrjJ-1" source="ZhwHeU2DW-AlFwMiwrjJ-4" target="UCymDucayZrGFGS8X2yc-31" edge="1">
          <mxGeometry width="50" height="50" relative="1" as="geometry">
            <mxPoint x="393" y="-510" as="sourcePoint" />
            <mxPoint x="428" y="-528" as="targetPoint" />
          </mxGeometry>
        </mxCell>
        <mxCell id="XAuuQmB97d2ZOVM2AcoV-0" value="SSN" style="ellipse;whiteSpace=wrap;html=1;" parent="ZhwHeU2DW-AlFwMiwrjJ-1" vertex="1">
          <mxGeometry x="460" y="-240" width="85" height="50" as="geometry" />
        </mxCell>
        <mxCell id="XAuuQmB97d2ZOVM2AcoV-1" value="" style="endArrow=none;html=1;rounded=0;" parent="ZhwHeU2DW-AlFwMiwrjJ-1" source="ZhwHeU2DW-AlFwMiwrjJ-3" target="XAuuQmB97d2ZOVM2AcoV-0" edge="1">
          <mxGeometry width="50" height="50" relative="1" as="geometry">
            <mxPoint x="397" y="-145" as="sourcePoint" />
            <mxPoint x="488" y="-145" as="targetPoint" />
          </mxGeometry>
        </mxCell>
        <mxCell id="dThWcByWi89jBJUVBqZU-0" value="" style="endArrow=none;html=1;rounded=0;" edge="1" parent="ZhwHeU2DW-AlFwMiwrjJ-1" source="ZhwHeU2DW-AlFwMiwrjJ-73" target="ZhwHeU2DW-AlFwMiwrjJ-85">
          <mxGeometry width="50" height="50" relative="1" as="geometry">
            <mxPoint x="370" y="-175" as="sourcePoint" />
            <mxPoint x="556" y="-342" as="targetPoint" />
          </mxGeometry>
        </mxCell>
        <mxCell id="dThWcByWi89jBJUVBqZU-1" value="N" style="edgeLabel;html=1;align=center;verticalAlign=middle;resizable=0;points=[];" connectable="0" vertex="1" parent="dThWcByWi89jBJUVBqZU-0">
          <mxGeometry x="0.2658" y="-3" relative="1" as="geometry">
            <mxPoint x="251" y="11" as="offset" />
          </mxGeometry>
        </mxCell>
      </root>
    </mxGraphModel>
  </diagram>
  <diagram id="_IRvp9Y6UCIXvQJjtKuu" name="Main">
    <mxGraphModel dx="3434" dy="3713" grid="1" gridSize="10" guides="1" tooltips="1" connect="1" arrows="1" fold="1" page="1" pageScale="1" pageWidth="827" pageHeight="1169" math="0" shadow="0">
      <root>
        <mxCell id="0" />
        <mxCell id="1" parent="0" />
        <mxCell id="NsBa4VDJcEfUwtNfSTFL-1" value="Teacher" style="rounded=0;whiteSpace=wrap;html=1;fillColor=#dae8fc;strokeColor=#6c8ebf;" parent="1" vertex="1">
          <mxGeometry x="172.5" y="-950" width="120" height="60" as="geometry" />
        </mxCell>
        <mxCell id="NsBa4VDJcEfUwtNfSTFL-2" value="Student" style="rounded=0;whiteSpace=wrap;html=1;fillColor=#dae8fc;strokeColor=#6c8ebf;" parent="1" vertex="1">
          <mxGeometry x="266.74" y="-185" width="120" height="60" as="geometry" />
        </mxCell>
        <mxCell id="NsBa4VDJcEfUwtNfSTFL-3" value="Class" style="rounded=0;whiteSpace=wrap;html=1;fillColor=#dae8fc;strokeColor=#6c8ebf;" parent="1" vertex="1">
          <mxGeometry x="265.49" y="-520" width="120" height="60" as="geometry" />
        </mxCell>
        <mxCell id="NsBa4VDJcEfUwtNfSTFL-4" value="Employee" style="rounded=0;whiteSpace=wrap;html=1;fillColor=#dae8fc;strokeColor=#6c8ebf;" parent="1" vertex="1">
          <mxGeometry x="173" y="-1200" width="120" height="60" as="geometry" />
        </mxCell>
        <mxCell id="NsBa4VDJcEfUwtNfSTFL-5" value="Supervisor" style="rounded=0;whiteSpace=wrap;html=1;fillColor=#dae8fc;strokeColor=#6c8ebf;" parent="1" vertex="1">
          <mxGeometry x="385.5" y="-950" width="120" height="60" as="geometry" />
        </mxCell>
        <mxCell id="NsBa4VDJcEfUwtNfSTFL-6" value="Admin" style="rounded=0;whiteSpace=wrap;html=1;fillColor=#dae8fc;strokeColor=#6c8ebf;" parent="1" vertex="1">
          <mxGeometry x="-32.5" y="-950" width="120" height="60" as="geometry" />
        </mxCell>
        <mxCell id="NsBa4VDJcEfUwtNfSTFL-7" value="d" style="ellipse;whiteSpace=wrap;html=1;aspect=fixed;" parent="1" vertex="1">
          <mxGeometry x="218" y="-1040" width="30" height="30" as="geometry" />
        </mxCell>
        <mxCell id="NsBa4VDJcEfUwtNfSTFL-8" value="" style="endArrow=none;html=1;rounded=0;entryX=0.5;entryY=1;entryDx=0;entryDy=0;exitX=0.5;exitY=0;exitDx=0;exitDy=0;shape=link;" parent="1" source="NsBa4VDJcEfUwtNfSTFL-7" target="NsBa4VDJcEfUwtNfSTFL-4" edge="1">
          <mxGeometry width="50" height="50" relative="1" as="geometry">
            <mxPoint x="438" y="-960" as="sourcePoint" />
            <mxPoint x="488" y="-1010" as="targetPoint" />
          </mxGeometry>
        </mxCell>
        <mxCell id="NsBa4VDJcEfUwtNfSTFL-9" value="&lt;u&gt;SSN&lt;/u&gt;" style="ellipse;whiteSpace=wrap;html=1;" parent="1" vertex="1">
          <mxGeometry x="65.5" y="-1150" width="85" height="50" as="geometry" />
        </mxCell>
        <mxCell id="NsBa4VDJcEfUwtNfSTFL-10" value="Name" style="ellipse;whiteSpace=wrap;html=1;" parent="1" vertex="1">
          <mxGeometry x="46.5" y="-1210" width="85" height="50" as="geometry" />
        </mxCell>
        <mxCell id="NsBa4VDJcEfUwtNfSTFL-11" value="Phone" style="ellipse;whiteSpace=wrap;html=1;" parent="1" vertex="1">
          <mxGeometry x="65.5" y="-1270" width="85" height="50" as="geometry" />
        </mxCell>
        <mxCell id="NsBa4VDJcEfUwtNfSTFL-12" value="Username" style="ellipse;whiteSpace=wrap;html=1;" parent="1" vertex="1">
          <mxGeometry x="153.75" y="-1310" width="85" height="50" as="geometry" />
        </mxCell>
        <mxCell id="NsBa4VDJcEfUwtNfSTFL-13" value="Password" style="ellipse;whiteSpace=wrap;html=1;" parent="1" vertex="1">
          <mxGeometry x="257.5" y="-1300" width="85" height="50" as="geometry" />
        </mxCell>
        <mxCell id="NsBa4VDJcEfUwtNfSTFL-14" value="Email" style="ellipse;whiteSpace=wrap;html=1;" parent="1" vertex="1">
          <mxGeometry x="342.5" y="-1160" width="85" height="50" as="geometry" />
        </mxCell>
        <mxCell id="NsBa4VDJcEfUwtNfSTFL-15" value="Address" style="ellipse;whiteSpace=wrap;html=1;" parent="1" vertex="1">
          <mxGeometry x="322.25" y="-1100" width="85" height="50" as="geometry" />
        </mxCell>
        <mxCell id="NsBa4VDJcEfUwtNfSTFL-16" value="" style="endArrow=none;html=1;rounded=0;entryX=1;entryY=0;entryDx=0;entryDy=0;exitX=0;exitY=0.75;exitDx=0;exitDy=0;" parent="1" source="NsBa4VDJcEfUwtNfSTFL-4" target="NsBa4VDJcEfUwtNfSTFL-9" edge="1">
          <mxGeometry width="50" height="50" relative="1" as="geometry">
            <mxPoint x="150.5" y="-1020" as="sourcePoint" />
            <mxPoint x="200.5" y="-1070" as="targetPoint" />
          </mxGeometry>
        </mxCell>
        <mxCell id="NsBa4VDJcEfUwtNfSTFL-17" value="" style="endArrow=none;html=1;rounded=0;entryX=1;entryY=0.5;entryDx=0;entryDy=0;exitX=0;exitY=0.25;exitDx=0;exitDy=0;" parent="1" source="NsBa4VDJcEfUwtNfSTFL-4" target="NsBa4VDJcEfUwtNfSTFL-10" edge="1">
          <mxGeometry width="50" height="50" relative="1" as="geometry">
            <mxPoint x="175.5" y="-1145" as="sourcePoint" />
            <mxPoint x="148.5" y="-1133" as="targetPoint" />
          </mxGeometry>
        </mxCell>
        <mxCell id="NsBa4VDJcEfUwtNfSTFL-18" value="" style="endArrow=none;html=1;rounded=0;entryX=1;entryY=1;entryDx=0;entryDy=0;exitX=0.25;exitY=0;exitDx=0;exitDy=0;" parent="1" source="NsBa4VDJcEfUwtNfSTFL-4" target="NsBa4VDJcEfUwtNfSTFL-11" edge="1">
          <mxGeometry width="50" height="50" relative="1" as="geometry">
            <mxPoint x="190.5" y="-1200" as="sourcePoint" />
            <mxPoint x="125.5" y="-1175" as="targetPoint" />
          </mxGeometry>
        </mxCell>
        <mxCell id="NsBa4VDJcEfUwtNfSTFL-19" value="" style="endArrow=none;html=1;rounded=0;entryX=0.5;entryY=1;entryDx=0;entryDy=0;exitX=0.5;exitY=0;exitDx=0;exitDy=0;" parent="1" source="NsBa4VDJcEfUwtNfSTFL-4" target="NsBa4VDJcEfUwtNfSTFL-12" edge="1">
          <mxGeometry width="50" height="50" relative="1" as="geometry">
            <mxPoint x="200.5" y="-1190" as="sourcePoint" />
            <mxPoint x="173.5" y="-1207" as="targetPoint" />
          </mxGeometry>
        </mxCell>
        <mxCell id="NsBa4VDJcEfUwtNfSTFL-20" value="" style="endArrow=none;html=1;rounded=0;entryX=0.27;entryY=0.938;entryDx=0;entryDy=0;exitX=0.75;exitY=0;exitDx=0;exitDy=0;entryPerimeter=0;" parent="1" source="NsBa4VDJcEfUwtNfSTFL-4" target="NsBa4VDJcEfUwtNfSTFL-13" edge="1">
          <mxGeometry width="50" height="50" relative="1" as="geometry">
            <mxPoint x="235.5" y="-1190" as="sourcePoint" />
            <mxPoint x="235.5" y="-1230" as="targetPoint" />
          </mxGeometry>
        </mxCell>
        <mxCell id="NsBa4VDJcEfUwtNfSTFL-21" value="" style="endArrow=none;html=1;rounded=0;entryX=0;entryY=0.5;entryDx=0;entryDy=0;" parent="1" source="NsBa4VDJcEfUwtNfSTFL-4" target="NsBa4VDJcEfUwtNfSTFL-14" edge="1">
          <mxGeometry width="50" height="50" relative="1" as="geometry">
            <mxPoint x="265.5" y="-1190" as="sourcePoint" />
            <mxPoint x="289.5" y="-1207" as="targetPoint" />
          </mxGeometry>
        </mxCell>
        <mxCell id="NsBa4VDJcEfUwtNfSTFL-22" value="" style="endArrow=none;html=1;rounded=0;entryX=0;entryY=0;entryDx=0;entryDy=0;exitX=0.824;exitY=1.004;exitDx=0;exitDy=0;exitPerimeter=0;" parent="1" source="NsBa4VDJcEfUwtNfSTFL-4" target="NsBa4VDJcEfUwtNfSTFL-15" edge="1">
          <mxGeometry width="50" height="50" relative="1" as="geometry">
            <mxPoint x="295.5" y="-1175" as="sourcePoint" />
            <mxPoint x="335.5" y="-1175" as="targetPoint" />
          </mxGeometry>
        </mxCell>
        <mxCell id="NsBa4VDJcEfUwtNfSTFL-23" value="In class" style="rhombus;whiteSpace=wrap;html=1;fillColor=#fad7ac;strokeColor=#b46504;" parent="1" vertex="1">
          <mxGeometry x="270.99" y="-320" width="110" height="50" as="geometry" />
        </mxCell>
        <mxCell id="NsBa4VDJcEfUwtNfSTFL-24" value="&lt;u&gt;Name&lt;/u&gt;" style="ellipse;whiteSpace=wrap;html=1;" parent="1" vertex="1">
          <mxGeometry x="352.5" y="-595" width="85" height="50" as="geometry" />
        </mxCell>
        <mxCell id="NsBa4VDJcEfUwtNfSTFL-25" value="Name" style="ellipse;whiteSpace=wrap;html=1;" parent="1" vertex="1">
          <mxGeometry x="185.99" y="-75" width="85" height="50" as="geometry" />
        </mxCell>
        <mxCell id="NsBa4VDJcEfUwtNfSTFL-26" value="&lt;u&gt;SSN&lt;/u&gt;" style="ellipse;whiteSpace=wrap;html=1;" parent="1" vertex="1">
          <mxGeometry x="282.99" y="-65" width="85" height="50" as="geometry" />
        </mxCell>
        <mxCell id="NsBa4VDJcEfUwtNfSTFL-27" value="Phone" style="ellipse;whiteSpace=wrap;html=1;" parent="1" vertex="1">
          <mxGeometry x="385.49" y="-65" width="85" height="50" as="geometry" />
        </mxCell>
        <mxCell id="NsBa4VDJcEfUwtNfSTFL-28" value="Email" style="ellipse;whiteSpace=wrap;html=1;" parent="1" vertex="1">
          <mxGeometry x="110" y="-105" width="85" height="50" as="geometry" />
        </mxCell>
        <mxCell id="NsBa4VDJcEfUwtNfSTFL-29" value="Address" style="ellipse;whiteSpace=wrap;html=1;" parent="1" vertex="1">
          <mxGeometry x="478.49" y="-115" width="85" height="50" as="geometry" />
        </mxCell>
        <mxCell id="NsBa4VDJcEfUwtNfSTFL-30" value="Responsible for/to" style="rhombus;whiteSpace=wrap;html=1;fillColor=#fad7ac;strokeColor=#b46504;" parent="1" vertex="1">
          <mxGeometry x="250.49" y="-750" width="150" height="50" as="geometry" />
        </mxCell>
        <mxCell id="NsBa4VDJcEfUwtNfSTFL-32" value="" style="endArrow=none;html=1;rounded=0;" parent="1" source="NsBa4VDJcEfUwtNfSTFL-24" target="NsBa4VDJcEfUwtNfSTFL-3" edge="1">
          <mxGeometry width="50" height="50" relative="1" as="geometry">
            <mxPoint x="246.49" y="-480" as="sourcePoint" />
            <mxPoint x="280.49" y="-480" as="targetPoint" />
          </mxGeometry>
        </mxCell>
        <mxCell id="NsBa4VDJcEfUwtNfSTFL-33" value="" style="endArrow=none;html=1;rounded=0;entryX=0;entryY=0.75;entryDx=0;entryDy=0;" parent="1" source="NsBa4VDJcEfUwtNfSTFL-28" target="NsBa4VDJcEfUwtNfSTFL-2" edge="1">
          <mxGeometry width="50" height="50" relative="1" as="geometry">
            <mxPoint x="170.49" y="-80.00000000000045" as="sourcePoint" />
            <mxPoint x="321.74" y="-245" as="targetPoint" />
          </mxGeometry>
        </mxCell>
        <mxCell id="NsBa4VDJcEfUwtNfSTFL-34" value="" style="endArrow=none;html=1;rounded=0;exitX=1;exitY=0.75;exitDx=0;exitDy=0;entryX=0;entryY=0.5;entryDx=0;entryDy=0;" parent="1" source="NsBa4VDJcEfUwtNfSTFL-2" target="NsBa4VDJcEfUwtNfSTFL-29" edge="1">
          <mxGeometry width="50" height="50" relative="1" as="geometry">
            <mxPoint x="271.74" y="-195" as="sourcePoint" />
            <mxPoint x="321.74" y="-245" as="targetPoint" />
          </mxGeometry>
        </mxCell>
        <mxCell id="NsBa4VDJcEfUwtNfSTFL-35" value="" style="endArrow=none;html=1;rounded=0;exitX=1;exitY=0;exitDx=0;exitDy=0;entryX=0.25;entryY=1;entryDx=0;entryDy=0;" parent="1" source="NsBa4VDJcEfUwtNfSTFL-25" target="NsBa4VDJcEfUwtNfSTFL-2" edge="1">
          <mxGeometry width="50" height="50" relative="1" as="geometry">
            <mxPoint x="271.74" y="-195" as="sourcePoint" />
            <mxPoint x="321.74" y="-245" as="targetPoint" />
          </mxGeometry>
        </mxCell>
        <mxCell id="NsBa4VDJcEfUwtNfSTFL-36" value="" style="endArrow=none;html=1;rounded=0;exitX=0.5;exitY=0;exitDx=0;exitDy=0;entryX=0.5;entryY=1;entryDx=0;entryDy=0;" parent="1" source="NsBa4VDJcEfUwtNfSTFL-26" target="NsBa4VDJcEfUwtNfSTFL-2" edge="1">
          <mxGeometry width="50" height="50" relative="1" as="geometry">
            <mxPoint x="264.74" y="-98" as="sourcePoint" />
            <mxPoint x="276.74" y="-115" as="targetPoint" />
          </mxGeometry>
        </mxCell>
        <mxCell id="NsBa4VDJcEfUwtNfSTFL-37" value="" style="endArrow=none;html=1;rounded=0;exitX=0;exitY=0;exitDx=0;exitDy=0;entryX=0.75;entryY=1;entryDx=0;entryDy=0;" parent="1" source="NsBa4VDJcEfUwtNfSTFL-27" target="NsBa4VDJcEfUwtNfSTFL-2" edge="1">
          <mxGeometry width="50" height="50" relative="1" as="geometry">
            <mxPoint x="264.74" y="-98" as="sourcePoint" />
            <mxPoint x="276.74" y="-115" as="targetPoint" />
          </mxGeometry>
        </mxCell>
        <mxCell id="NsBa4VDJcEfUwtNfSTFL-38" value="" style="endArrow=none;html=1;rounded=0;" parent="1" source="NsBa4VDJcEfUwtNfSTFL-30" target="NsBa4VDJcEfUwtNfSTFL-1" edge="1">
          <mxGeometry width="50" height="50" relative="1" as="geometry">
            <mxPoint x="105" y="-510" as="sourcePoint" />
            <mxPoint x="155" y="-560" as="targetPoint" />
          </mxGeometry>
        </mxCell>
        <mxCell id="NsBa4VDJcEfUwtNfSTFL-39" value="N" style="edgeLabel;html=1;align=center;verticalAlign=middle;resizable=0;points=[];" parent="NsBa4VDJcEfUwtNfSTFL-38" connectable="0" vertex="1">
          <mxGeometry x="-0.5819" y="1" relative="1" as="geometry">
            <mxPoint x="-7" y="11" as="offset" />
          </mxGeometry>
        </mxCell>
        <mxCell id="NsBa4VDJcEfUwtNfSTFL-40" value="" style="endArrow=none;html=1;rounded=0;exitX=1;exitY=0.5;exitDx=0;exitDy=0;entryX=0;entryY=0.5;entryDx=0;entryDy=0;startArrow=none;exitPerimeter=0;" parent="1" source="NsBa4VDJcEfUwtNfSTFL-58" target="NsBa4VDJcEfUwtNfSTFL-7" edge="1">
          <mxGeometry width="50" height="50" relative="1" as="geometry">
            <mxPoint x="317.5" y="-850" as="sourcePoint" />
            <mxPoint x="367.5" y="-900" as="targetPoint" />
          </mxGeometry>
        </mxCell>
        <mxCell id="NsBa4VDJcEfUwtNfSTFL-41" value="" style="endArrow=none;html=1;rounded=0;exitX=1;exitY=0.5;exitDx=0;exitDy=0;entryX=0.5;entryY=1;entryDx=0;entryDy=0;startArrow=none;exitPerimeter=0;" parent="1" source="NsBa4VDJcEfUwtNfSTFL-60" target="NsBa4VDJcEfUwtNfSTFL-7" edge="1">
          <mxGeometry width="50" height="50" relative="1" as="geometry">
            <mxPoint x="97.5" y="-940" as="sourcePoint" />
            <mxPoint x="232.5" y="-1015" as="targetPoint" />
          </mxGeometry>
        </mxCell>
        <mxCell id="NsBa4VDJcEfUwtNfSTFL-42" value="" style="endArrow=none;html=1;rounded=0;entryX=1;entryY=0.5;entryDx=0;entryDy=0;exitX=1;exitY=0.5;exitDx=0;exitDy=0;startArrow=none;exitPerimeter=0;" parent="1" source="NsBa4VDJcEfUwtNfSTFL-62" target="NsBa4VDJcEfUwtNfSTFL-7" edge="1">
          <mxGeometry width="50" height="50" relative="1" as="geometry">
            <mxPoint x="387.5" y="-920" as="sourcePoint" />
            <mxPoint x="437.5" y="-970" as="targetPoint" />
          </mxGeometry>
        </mxCell>
        <mxCell id="NsBa4VDJcEfUwtNfSTFL-53" value="" style="endArrow=none;html=1;rounded=0;entryX=0.5;entryY=1;entryDx=0;entryDy=0;exitX=0.5;exitY=0;exitDx=0;exitDy=0;" parent="1" source="NsBa4VDJcEfUwtNfSTFL-2" target="NsBa4VDJcEfUwtNfSTFL-23" edge="1">
          <mxGeometry width="50" height="50" relative="1" as="geometry">
            <mxPoint x="310.49" y="-290" as="sourcePoint" />
            <mxPoint x="320.49" y="-320" as="targetPoint" />
          </mxGeometry>
        </mxCell>
        <mxCell id="NsBa4VDJcEfUwtNfSTFL-54" value="N" style="edgeLabel;html=1;align=center;verticalAlign=middle;resizable=0;points=[];" parent="NsBa4VDJcEfUwtNfSTFL-53" connectable="0" vertex="1">
          <mxGeometry x="0.3124" y="2" relative="1" as="geometry">
            <mxPoint x="17" y="-89" as="offset" />
          </mxGeometry>
        </mxCell>
        <mxCell id="NsBa4VDJcEfUwtNfSTFL-55" value="N" style="edgeLabel;html=1;align=center;verticalAlign=middle;resizable=0;points=[];" parent="NsBa4VDJcEfUwtNfSTFL-53" connectable="0" vertex="1">
          <mxGeometry x="0.2658" y="-3" relative="1" as="geometry">
            <mxPoint x="11" y="-22" as="offset" />
          </mxGeometry>
        </mxCell>
        <mxCell id="NsBa4VDJcEfUwtNfSTFL-57" value="" style="endArrow=none;html=1;rounded=0;exitX=1;exitY=0;exitDx=0;exitDy=0;entryX=1;entryY=0.5;entryDx=0;entryDy=0;entryPerimeter=0;" parent="1" source="NsBa4VDJcEfUwtNfSTFL-6" target="NsBa4VDJcEfUwtNfSTFL-58" edge="1">
          <mxGeometry width="50" height="50" relative="1" as="geometry">
            <mxPoint x="87.5" y="-950" as="sourcePoint" />
            <mxPoint x="218.5" y="-1025" as="targetPoint" />
          </mxGeometry>
        </mxCell>
        <mxCell id="NsBa4VDJcEfUwtNfSTFL-58" value="" style="shape=requiredInterface;html=1;verticalLabelPosition=bottom;sketch=0;rotation=-210;" parent="1" vertex="1">
          <mxGeometry x="150.5" y="-1000" width="10" height="20" as="geometry" />
        </mxCell>
        <mxCell id="NsBa4VDJcEfUwtNfSTFL-59" value="" style="endArrow=none;html=1;rounded=0;exitX=0.5;exitY=0;exitDx=0;exitDy=0;entryX=1;entryY=0.5;entryDx=0;entryDy=0;entryPerimeter=0;" parent="1" source="NsBa4VDJcEfUwtNfSTFL-1" target="NsBa4VDJcEfUwtNfSTFL-60" edge="1">
          <mxGeometry width="50" height="50" relative="1" as="geometry">
            <mxPoint x="232.5" y="-950" as="sourcePoint" />
            <mxPoint x="233.5" y="-1010" as="targetPoint" />
          </mxGeometry>
        </mxCell>
        <mxCell id="NsBa4VDJcEfUwtNfSTFL-60" value="" style="shape=requiredInterface;html=1;verticalLabelPosition=bottom;sketch=0;rotation=90;" parent="1" vertex="1">
          <mxGeometry x="227.5" y="-990" width="10" height="20" as="geometry" />
        </mxCell>
        <mxCell id="NsBa4VDJcEfUwtNfSTFL-61" value="" style="endArrow=none;html=1;rounded=0;entryX=1;entryY=0.5;entryDx=0;entryDy=0;exitX=0;exitY=0;exitDx=0;exitDy=0;" parent="1" source="NsBa4VDJcEfUwtNfSTFL-5" target="NsBa4VDJcEfUwtNfSTFL-62" edge="1">
          <mxGeometry width="50" height="50" relative="1" as="geometry">
            <mxPoint x="382.5" y="-950" as="sourcePoint" />
            <mxPoint x="248.5" y="-1025" as="targetPoint" />
          </mxGeometry>
        </mxCell>
        <mxCell id="NsBa4VDJcEfUwtNfSTFL-62" value="" style="shape=requiredInterface;html=1;verticalLabelPosition=bottom;sketch=0;rotation=30;" parent="1" vertex="1">
          <mxGeometry x="312.25" y="-1000" width="10" height="20" as="geometry" />
        </mxCell>
        <mxCell id="NsBa4VDJcEfUwtNfSTFL-74" value="Classroom" style="rounded=0;whiteSpace=wrap;html=1;fillColor=#dae8fc;strokeColor=#6C8EBF;" parent="1" vertex="1">
          <mxGeometry x="-600" y="-470" width="120" height="60" as="geometry" />
        </mxCell>
        <mxCell id="NsBa4VDJcEfUwtNfSTFL-75" value="&lt;u&gt;Number&lt;/u&gt;" style="ellipse;whiteSpace=wrap;html=1;" parent="1" vertex="1">
          <mxGeometry x="-565" y="-545" width="85" height="50" as="geometry" />
        </mxCell>
        <mxCell id="NsBa4VDJcEfUwtNfSTFL-76" value="" style="endArrow=none;html=1;rounded=0;" parent="1" source="NsBa4VDJcEfUwtNfSTFL-75" target="NsBa4VDJcEfUwtNfSTFL-74" edge="1">
          <mxGeometry width="50" height="50" relative="1" as="geometry">
            <mxPoint x="-83" y="-265" as="sourcePoint" />
            <mxPoint x="-33" y="-315" as="targetPoint" />
          </mxGeometry>
        </mxCell>
        <mxCell id="NsBa4VDJcEfUwtNfSTFL-77" value="" style="endArrow=none;html=1;rounded=0;" parent="1" source="Xa7vmcvFHaN_zs3zjcBk-12" target="Xa7vmcvFHaN_zs3zjcBk-13" edge="1">
          <mxGeometry width="50" height="50" relative="1" as="geometry">
            <mxPoint x="-540" y="-285" as="sourcePoint" />
            <mxPoint x="-540" y="-235" as="targetPoint" />
          </mxGeometry>
        </mxCell>
        <mxCell id="NsBa4VDJcEfUwtNfSTFL-82" value="&lt;span style=&quot;font-weight: normal;&quot;&gt;End-day&lt;/span&gt;" style="ellipse;whiteSpace=wrap;html=1;" parent="1" vertex="1">
          <mxGeometry x="162.5" y="-530" width="67.5" height="35" as="geometry" />
        </mxCell>
        <mxCell id="NsBa4VDJcEfUwtNfSTFL-83" value="" style="endArrow=none;html=1;rounded=0;" parent="1" source="NsBa4VDJcEfUwtNfSTFL-117" target="NsBa4VDJcEfUwtNfSTFL-116" edge="1">
          <mxGeometry width="50" height="50" relative="1" as="geometry">
            <mxPoint x="99.99742047232417" y="-587.0076704437047" as="sourcePoint" />
            <mxPoint x="275.49" y="-510" as="targetPoint" />
          </mxGeometry>
        </mxCell>
        <mxCell id="NsBa4VDJcEfUwtNfSTFL-84" value="" style="endArrow=none;html=1;rounded=0;" parent="1" source="NsBa4VDJcEfUwtNfSTFL-82" target="NsBa4VDJcEfUwtNfSTFL-116" edge="1">
          <mxGeometry width="50" height="50" relative="1" as="geometry">
            <mxPoint x="416.49" y="-527" as="sourcePoint" />
            <mxPoint x="395.49" y="-510" as="targetPoint" />
          </mxGeometry>
        </mxCell>
        <mxCell id="NsBa4VDJcEfUwtNfSTFL-97" value="Birthday" style="ellipse;whiteSpace=wrap;html=1;" parent="1" vertex="1">
          <mxGeometry x="352.5" y="-1300" width="85" height="50" as="geometry" />
        </mxCell>
        <mxCell id="NsBa4VDJcEfUwtNfSTFL-98" value="Birthplace" style="ellipse;whiteSpace=wrap;html=1;" parent="1" vertex="1">
          <mxGeometry x="352.5" y="-1230" width="85" height="50" as="geometry" />
        </mxCell>
        <mxCell id="NsBa4VDJcEfUwtNfSTFL-99" value="" style="endArrow=none;html=1;rounded=0;entryX=0;entryY=0.5;entryDx=0;entryDy=0;exitX=0.999;exitY=0.369;exitDx=0;exitDy=0;exitPerimeter=0;" parent="1" source="NsBa4VDJcEfUwtNfSTFL-4" target="NsBa4VDJcEfUwtNfSTFL-98" edge="1">
          <mxGeometry width="50" height="50" relative="1" as="geometry">
            <mxPoint x="303.5" y="-1141" as="sourcePoint" />
            <mxPoint x="352.5" y="-1125" as="targetPoint" />
          </mxGeometry>
        </mxCell>
        <mxCell id="NsBa4VDJcEfUwtNfSTFL-100" value="" style="endArrow=none;html=1;rounded=0;entryX=0.105;entryY=0.862;entryDx=0;entryDy=0;exitX=1;exitY=0;exitDx=0;exitDy=0;entryPerimeter=0;" parent="1" source="NsBa4VDJcEfUwtNfSTFL-4" target="NsBa4VDJcEfUwtNfSTFL-97" edge="1">
          <mxGeometry width="50" height="50" relative="1" as="geometry">
            <mxPoint x="302.5" y="-1168" as="sourcePoint" />
            <mxPoint x="362.5" y="-1195" as="targetPoint" />
          </mxGeometry>
        </mxCell>
        <mxCell id="NsBa4VDJcEfUwtNfSTFL-101" value="Birthday" style="ellipse;whiteSpace=wrap;html=1;" parent="1" vertex="1">
          <mxGeometry x="112.99000000000001" y="-165" width="85" height="50" as="geometry" />
        </mxCell>
        <mxCell id="NsBa4VDJcEfUwtNfSTFL-102" value="Birthplace" style="ellipse;whiteSpace=wrap;html=1;" parent="1" vertex="1">
          <mxGeometry x="478.49" y="-180" width="85" height="50" as="geometry" />
        </mxCell>
        <mxCell id="NsBa4VDJcEfUwtNfSTFL-103" value="" style="endArrow=none;html=1;rounded=0;entryX=0;entryY=0.5;entryDx=0;entryDy=0;exitX=0.976;exitY=0.632;exitDx=0;exitDy=0;exitPerimeter=0;" parent="1" source="NsBa4VDJcEfUwtNfSTFL-101" target="NsBa4VDJcEfUwtNfSTFL-2" edge="1">
          <mxGeometry width="50" height="50" relative="1" as="geometry">
            <mxPoint x="200.49" y="-145" as="sourcePoint" />
            <mxPoint x="276.49" y="-130" as="targetPoint" />
          </mxGeometry>
        </mxCell>
        <mxCell id="NsBa4VDJcEfUwtNfSTFL-104" value="" style="endArrow=none;html=1;rounded=0;exitX=1;exitY=0.5;exitDx=0;exitDy=0;entryX=0;entryY=0.5;entryDx=0;entryDy=0;" parent="1" source="NsBa4VDJcEfUwtNfSTFL-2" target="NsBa4VDJcEfUwtNfSTFL-102" edge="1">
          <mxGeometry width="50" height="50" relative="1" as="geometry">
            <mxPoint x="396.49" y="-130" as="sourcePoint" />
            <mxPoint x="480.49" y="-90" as="targetPoint" />
          </mxGeometry>
        </mxCell>
        <mxCell id="NsBa4VDJcEfUwtNfSTFL-112" value="1" style="endArrow=none;html=1;rounded=0;" parent="1" source="5-32U8j99or0GstQlVqZ-1" target="NsBa4VDJcEfUwtNfSTFL-74" edge="1">
          <mxGeometry x="-0.048" y="-8" width="50" height="50" relative="1" as="geometry">
            <mxPoint x="-452.5" y="-392.5" as="sourcePoint" />
            <mxPoint x="21" y="-275" as="targetPoint" />
            <mxPoint as="offset" />
          </mxGeometry>
        </mxCell>
        <mxCell id="NsBa4VDJcEfUwtNfSTFL-113" value="1" style="endArrow=none;html=1;rounded=0;" parent="1" source="5-32U8j99or0GstQlVqZ-1" target="Xa7vmcvFHaN_zs3zjcBk-12" edge="1">
          <mxGeometry x="-0.0987" y="-11" width="50" height="50" relative="1" as="geometry">
            <mxPoint x="-440" y="-363" as="sourcePoint" />
            <mxPoint x="-484.6153846153845" y="-345" as="targetPoint" />
            <mxPoint as="offset" />
          </mxGeometry>
        </mxCell>
        <mxCell id="NsBa4VDJcEfUwtNfSTFL-116" value="Period" style="ellipse;whiteSpace=wrap;html=1;" parent="1" vertex="1">
          <mxGeometry x="218" y="-585" width="85" height="50" as="geometry" />
        </mxCell>
        <mxCell id="NsBa4VDJcEfUwtNfSTFL-117" value="Start-day" style="ellipse;whiteSpace=wrap;html=1;" parent="1" vertex="1">
          <mxGeometry x="152.24" y="-610" width="67.5" height="35" as="geometry" />
        </mxCell>
        <mxCell id="NsBa4VDJcEfUwtNfSTFL-118" value="" style="endArrow=none;html=1;rounded=0;" parent="1" source="NsBa4VDJcEfUwtNfSTFL-3" target="NsBa4VDJcEfUwtNfSTFL-116" edge="1">
          <mxGeometry width="50" height="50" relative="1" as="geometry">
            <mxPoint x="372.49" y="-527" as="sourcePoint" />
            <mxPoint x="365.49" y="-510" as="targetPoint" />
          </mxGeometry>
        </mxCell>
        <mxCell id="NsBa4VDJcEfUwtNfSTFL-121" value="N" style="endArrow=none;html=1;rounded=0;shape=link;" parent="1" source="5-32U8j99or0GstQlVqZ-1" target="LoS6PslLuwaPHfb9e8Ou-1" edge="1">
          <mxGeometry x="-0.0086" y="15" width="50" height="50" relative="1" as="geometry">
            <mxPoint x="-370" y="-380" as="sourcePoint" />
            <mxPoint x="-289.27999999999975" y="-380.39999999999986" as="targetPoint" />
            <mxPoint as="offset" />
          </mxGeometry>
        </mxCell>
        <mxCell id="LoS6PslLuwaPHfb9e8Ou-1" value="Session" style="shape=ext;margin=3;double=1;whiteSpace=wrap;html=1;align=center;fillColor=#DAE8FC;strokeColor=#6C8EBF;" parent="1" vertex="1">
          <mxGeometry x="-330" y="-400" width="100" height="40" as="geometry" />
        </mxCell>
        <mxCell id="LoS6PslLuwaPHfb9e8Ou-4" value="N" style="endArrow=none;html=1;rounded=0;shape=link;" parent="1" source="LoS6PslLuwaPHfb9e8Ou-1" target="5-32U8j99or0GstQlVqZ-3" edge="1">
          <mxGeometry x="0.8181" y="14" width="50" height="50" relative="1" as="geometry">
            <mxPoint x="-220" y="-415" as="sourcePoint" />
            <mxPoint x="-188.75" y="-415" as="targetPoint" />
            <mxPoint as="offset" />
          </mxGeometry>
        </mxCell>
        <mxCell id="LoS6PslLuwaPHfb9e8Ou-5" value="" style="endArrow=none;html=1;rounded=0;" parent="1" source="5-32U8j99or0GstQlVqZ-3" target="NsBa4VDJcEfUwtNfSTFL-3" edge="1">
          <mxGeometry width="50" height="50" relative="1" as="geometry">
            <mxPoint x="216.74" y="-430" as="sourcePoint" />
            <mxPoint x="518.49" y="-720" as="targetPoint" />
          </mxGeometry>
        </mxCell>
        <mxCell id="LoS6PslLuwaPHfb9e8Ou-6" value="1" style="edgeLabel;html=1;align=center;verticalAlign=middle;resizable=0;points=[];" parent="LoS6PslLuwaPHfb9e8Ou-5" connectable="0" vertex="1">
          <mxGeometry x="-0.5819" y="1" relative="1" as="geometry">
            <mxPoint x="-13" y="-8" as="offset" />
          </mxGeometry>
        </mxCell>
        <mxCell id="LoS6PslLuwaPHfb9e8Ou-9" value="&lt;span style=&quot;border-bottom: 1px dotted&quot;&gt;Number&lt;/span&gt;" style="ellipse;whiteSpace=wrap;html=1;align=center;" parent="1" vertex="1">
          <mxGeometry x="-400" y="-335" width="80" height="40" as="geometry" />
        </mxCell>
        <mxCell id="LoS6PslLuwaPHfb9e8Ou-10" value="" style="endArrow=none;html=1;rounded=0;" parent="1" source="LoS6PslLuwaPHfb9e8Ou-9" target="LoS6PslLuwaPHfb9e8Ou-1" edge="1">
          <mxGeometry width="50" height="50" relative="1" as="geometry">
            <mxPoint x="-246" y="-520" as="sourcePoint" />
            <mxPoint x="-189" y="-495" as="targetPoint" />
          </mxGeometry>
        </mxCell>
        <mxCell id="LoS6PslLuwaPHfb9e8Ou-13" value="" style="endArrow=none;html=1;rounded=0;" parent="1" source="NsBa4VDJcEfUwtNfSTFL-2" target="LoS6PslLuwaPHfb9e8Ou-7" edge="1">
          <mxGeometry width="50" height="50" relative="1" as="geometry">
            <mxPoint x="336.49" y="-230" as="sourcePoint" />
            <mxPoint x="336.49" y="-260" as="targetPoint" />
          </mxGeometry>
        </mxCell>
        <mxCell id="LoS6PslLuwaPHfb9e8Ou-15" value="N" style="edgeLabel;html=1;align=center;verticalAlign=middle;resizable=0;points=[];" parent="LoS6PslLuwaPHfb9e8Ou-13" connectable="0" vertex="1">
          <mxGeometry x="0.2658" y="-3" relative="1" as="geometry">
            <mxPoint x="63" y="-25" as="offset" />
          </mxGeometry>
        </mxCell>
        <mxCell id="LoS6PslLuwaPHfb9e8Ou-20" value="Status" style="ellipse;whiteSpace=wrap;html=1;" parent="1" vertex="1">
          <mxGeometry x="645.49" y="-435" width="85" height="50" as="geometry" />
        </mxCell>
        <mxCell id="LoS6PslLuwaPHfb9e8Ou-21" value="Note" style="ellipse;whiteSpace=wrap;html=1;" parent="1" vertex="1">
          <mxGeometry x="645.49" y="-350" width="85" height="50" as="geometry" />
        </mxCell>
        <mxCell id="LoS6PslLuwaPHfb9e8Ou-22" value="" style="endArrow=none;html=1;rounded=0;" parent="1" source="LoS6PslLuwaPHfb9e8Ou-20" target="LoS6PslLuwaPHfb9e8Ou-7" edge="1">
          <mxGeometry width="50" height="50" relative="1" as="geometry">
            <mxPoint x="275.49" y="-495" as="sourcePoint" />
            <mxPoint x="199.49" y="-500" as="targetPoint" />
          </mxGeometry>
        </mxCell>
        <mxCell id="LoS6PslLuwaPHfb9e8Ou-24" value="" style="endArrow=none;html=1;rounded=0;" parent="1" source="LoS6PslLuwaPHfb9e8Ou-21" target="LoS6PslLuwaPHfb9e8Ou-7" edge="1">
          <mxGeometry width="50" height="50" relative="1" as="geometry">
            <mxPoint x="695.49" y="-345" as="sourcePoint" />
            <mxPoint x="641.49" y="-378" as="targetPoint" />
          </mxGeometry>
        </mxCell>
        <mxCell id="LoS6PslLuwaPHfb9e8Ou-7" value="Student attendance" style="rhombus;whiteSpace=wrap;html=1;fillColor=#fad7ac;strokeColor=#b46504;" parent="1" vertex="1">
          <mxGeometry x="500.24" y="-395" width="130" height="50" as="geometry" />
        </mxCell>
        <mxCell id="5-32U8j99or0GstQlVqZ-1" value="Have schedule" style="shape=rhombus;double=1;perimeter=rhombusPerimeter;whiteSpace=wrap;html=1;align=center;fillColor=#FAD7AC;strokeColor=#B46504;" parent="1" vertex="1">
          <mxGeometry x="-480" y="-410" width="120" height="60" as="geometry" />
        </mxCell>
        <mxCell id="5-32U8j99or0GstQlVqZ-3" value="Have" style="rhombus;whiteSpace=wrap;html=1;fillColor=#fad7ac;strokeColor=#b46504;" parent="1" vertex="1">
          <mxGeometry x="12.5" y="-455" width="110" height="50" as="geometry" />
        </mxCell>
        <mxCell id="dLddTE17kFlnMx9GV489-3" value="Status" style="ellipse;whiteSpace=wrap;html=1;" parent="1" vertex="1">
          <mxGeometry x="415.24" y="-555" width="85" height="50" as="geometry" />
        </mxCell>
        <mxCell id="dLddTE17kFlnMx9GV489-4" value="" style="endArrow=none;html=1;rounded=0;" parent="1" source="dLddTE17kFlnMx9GV489-3" target="NsBa4VDJcEfUwtNfSTFL-3" edge="1">
          <mxGeometry width="50" height="50" relative="1" as="geometry">
            <mxPoint x="280.49" y="-547" as="sourcePoint" />
            <mxPoint x="297.49" y="-509" as="targetPoint" />
          </mxGeometry>
        </mxCell>
        <mxCell id="yOx9B2AxObz_JR-XIYCs-1" value="Need to check if the student belongs to the session&#39;s class in this table" style="text;html=1;strokeColor=none;fillColor=none;align=center;verticalAlign=middle;whiteSpace=wrap;rounded=0;" parent="1" vertex="1">
          <mxGeometry x="507.63" y="-460" width="122.61" height="45" as="geometry" />
        </mxCell>
        <mxCell id="yOx9B2AxObz_JR-XIYCs-2" value="Need to check if the date is in the class&#39;s period time" style="text;html=1;strokeColor=none;fillColor=none;align=center;verticalAlign=middle;whiteSpace=wrap;rounded=0;" parent="1" vertex="1">
          <mxGeometry x="-250" y="-345" width="120" height="40" as="geometry" />
        </mxCell>
        <mxCell id="fqYqqV2FEP6NsdqzG0RD-1" value="Teacher attendance" style="rhombus;whiteSpace=wrap;html=1;fillColor=#fad7ac;strokeColor=#b46504;" parent="1" vertex="1">
          <mxGeometry x="-220" y="-785" width="130" height="50" as="geometry" />
        </mxCell>
        <mxCell id="fqYqqV2FEP6NsdqzG0RD-3" value="" style="endArrow=none;html=1;rounded=0;shape=link;" parent="1" source="LoS6PslLuwaPHfb9e8Ou-1" target="fqYqqV2FEP6NsdqzG0RD-1" edge="1">
          <mxGeometry width="50" height="50" relative="1" as="geometry">
            <mxPoint x="100" y="-480" as="sourcePoint" />
            <mxPoint x="150" y="-530" as="targetPoint" />
          </mxGeometry>
        </mxCell>
        <mxCell id="fqYqqV2FEP6NsdqzG0RD-7" value="N" style="edgeLabel;html=1;align=center;verticalAlign=middle;resizable=0;points=[];" parent="fqYqqV2FEP6NsdqzG0RD-3" connectable="0" vertex="1">
          <mxGeometry x="0.3644" relative="1" as="geometry">
            <mxPoint x="21" y="-91" as="offset" />
          </mxGeometry>
        </mxCell>
        <mxCell id="fqYqqV2FEP6NsdqzG0RD-4" value="" style="endArrow=none;html=1;rounded=0;" parent="1" source="fqYqqV2FEP6NsdqzG0RD-1" target="NsBa4VDJcEfUwtNfSTFL-1" edge="1">
          <mxGeometry width="50" height="50" relative="1" as="geometry">
            <mxPoint x="110" y="-580" as="sourcePoint" />
            <mxPoint x="160" y="-630" as="targetPoint" />
          </mxGeometry>
        </mxCell>
        <mxCell id="fqYqqV2FEP6NsdqzG0RD-9" value="1" style="edgeLabel;html=1;align=center;verticalAlign=middle;resizable=0;points=[];" parent="fqYqqV2FEP6NsdqzG0RD-4" connectable="0" vertex="1">
          <mxGeometry x="-0.6636" y="2" relative="1" as="geometry">
            <mxPoint x="-31" y="-3" as="offset" />
          </mxGeometry>
        </mxCell>
        <mxCell id="fqYqqV2FEP6NsdqzG0RD-5" value="" style="endArrow=none;html=1;rounded=0;" parent="1" source="fqYqqV2FEP6NsdqzG0RD-1" target="NsBa4VDJcEfUwtNfSTFL-5" edge="1">
          <mxGeometry width="50" height="50" relative="1" as="geometry">
            <mxPoint x="-244" y="-630" as="sourcePoint" />
            <mxPoint x="190" y="-880" as="targetPoint" />
          </mxGeometry>
        </mxCell>
        <mxCell id="fqYqqV2FEP6NsdqzG0RD-8" value="1" style="edgeLabel;html=1;align=center;verticalAlign=middle;resizable=0;points=[];" parent="fqYqqV2FEP6NsdqzG0RD-5" connectable="0" vertex="1">
          <mxGeometry x="-0.7212" y="-1" relative="1" as="geometry">
            <mxPoint x="-26" y="21" as="offset" />
          </mxGeometry>
        </mxCell>
        <mxCell id="fqYqqV2FEP6NsdqzG0RD-6" value="Note for class" style="rhombus;whiteSpace=wrap;html=1;fillColor=#fad7ac;strokeColor=#b46504;" parent="1" vertex="1">
          <mxGeometry x="37.5" y="-655" width="130" height="50" as="geometry" />
        </mxCell>
        <mxCell id="fqYqqV2FEP6NsdqzG0RD-10" value="Status" style="ellipse;whiteSpace=wrap;html=1;" parent="1" vertex="1">
          <mxGeometry x="645.49" y="-435" width="85" height="50" as="geometry" />
        </mxCell>
        <mxCell id="fqYqqV2FEP6NsdqzG0RD-11" value="Status" style="ellipse;whiteSpace=wrap;html=1;" parent="1" vertex="1">
          <mxGeometry x="-350" y="-875" width="85" height="50" as="geometry" />
        </mxCell>
        <mxCell id="fqYqqV2FEP6NsdqzG0RD-12" value="" style="endArrow=none;html=1;rounded=0;" parent="1" source="fqYqqV2FEP6NsdqzG0RD-11" target="fqYqqV2FEP6NsdqzG0RD-1" edge="1">
          <mxGeometry width="50" height="50" relative="1" as="geometry">
            <mxPoint x="49.5" y="-629.36" as="sourcePoint" />
            <mxPoint x="99.5" y="-679.36" as="targetPoint" />
          </mxGeometry>
        </mxCell>
        <mxCell id="fqYqqV2FEP6NsdqzG0RD-13" value="" style="endArrow=none;html=1;rounded=0;" parent="1" source="fqYqqV2FEP6NsdqzG0RD-6" target="NsBa4VDJcEfUwtNfSTFL-5" edge="1">
          <mxGeometry width="50" height="50" relative="1" as="geometry">
            <mxPoint x="190" y="-610" as="sourcePoint" />
            <mxPoint x="240" y="-660" as="targetPoint" />
          </mxGeometry>
        </mxCell>
        <mxCell id="fqYqqV2FEP6NsdqzG0RD-16" value="1" style="edgeLabel;html=1;align=center;verticalAlign=middle;resizable=0;points=[];" parent="fqYqqV2FEP6NsdqzG0RD-13" connectable="0" vertex="1">
          <mxGeometry x="-0.7954" y="1" relative="1" as="geometry">
            <mxPoint x="-37" y="5" as="offset" />
          </mxGeometry>
        </mxCell>
        <mxCell id="fqYqqV2FEP6NsdqzG0RD-14" value="" style="endArrow=none;html=1;rounded=0;shape=link;" parent="1" source="LoS6PslLuwaPHfb9e8Ou-1" target="fqYqqV2FEP6NsdqzG0RD-6" edge="1">
          <mxGeometry width="50" height="50" relative="1" as="geometry">
            <mxPoint x="-36" y="-673" as="sourcePoint" />
            <mxPoint x="396" y="-881" as="targetPoint" />
          </mxGeometry>
        </mxCell>
        <mxCell id="fqYqqV2FEP6NsdqzG0RD-15" value="N" style="edgeLabel;html=1;align=center;verticalAlign=middle;resizable=0;points=[];" parent="fqYqqV2FEP6NsdqzG0RD-14" connectable="0" vertex="1">
          <mxGeometry x="0.3602" y="-3" relative="1" as="geometry">
            <mxPoint x="53" y="-74" as="offset" />
          </mxGeometry>
        </mxCell>
        <mxCell id="fqYqqV2FEP6NsdqzG0RD-17" value="Max of seat" style="ellipse;whiteSpace=wrap;html=1;" parent="1" vertex="1">
          <mxGeometry x="-670" y="-535" width="85" height="50" as="geometry" />
        </mxCell>
        <mxCell id="fqYqqV2FEP6NsdqzG0RD-18" value="" style="endArrow=none;html=1;rounded=0;" parent="1" source="fqYqqV2FEP6NsdqzG0RD-17" target="NsBa4VDJcEfUwtNfSTFL-74" edge="1">
          <mxGeometry width="50" height="50" relative="1" as="geometry">
            <mxPoint x="-504" y="-525" as="sourcePoint" />
            <mxPoint x="-522" y="-460" as="targetPoint" />
          </mxGeometry>
        </mxCell>
        <mxCell id="fqYqqV2FEP6NsdqzG0RD-19" value="Note" style="ellipse;whiteSpace=wrap;html=1;" parent="1" vertex="1">
          <mxGeometry x="46.5" y="-571.5" width="85" height="34" as="geometry" />
        </mxCell>
        <mxCell id="fqYqqV2FEP6NsdqzG0RD-20" value="" style="endArrow=none;html=1;rounded=0;" parent="1" source="fqYqqV2FEP6NsdqzG0RD-19" target="fqYqqV2FEP6NsdqzG0RD-6" edge="1">
          <mxGeometry width="50" height="50" relative="1" as="geometry">
            <mxPoint x="120" y="-574.11" as="sourcePoint" />
            <mxPoint x="170" y="-624.11" as="targetPoint" />
          </mxGeometry>
        </mxCell>
        <mxCell id="fqYqqV2FEP6NsdqzG0RD-21" value="Maximum number of students" style="ellipse;whiteSpace=wrap;html=1;" parent="1" vertex="1">
          <mxGeometry x="415.24" y="-495" width="85" height="50" as="geometry" />
        </mxCell>
        <mxCell id="fqYqqV2FEP6NsdqzG0RD-22" value="" style="endArrow=none;html=1;rounded=0;" parent="1" source="fqYqqV2FEP6NsdqzG0RD-21" target="NsBa4VDJcEfUwtNfSTFL-3" edge="1">
          <mxGeometry width="50" height="50" relative="1" as="geometry">
            <mxPoint x="435" y="-546" as="sourcePoint" />
            <mxPoint x="380" y="-510" as="targetPoint" />
          </mxGeometry>
        </mxCell>
        <mxCell id="fqYqqV2FEP6NsdqzG0RD-23" value="Status" style="ellipse;whiteSpace=wrap;html=1;align=center;" parent="1" vertex="1">
          <mxGeometry x="-330" y="-305" width="80" height="40" as="geometry" />
        </mxCell>
        <mxCell id="fqYqqV2FEP6NsdqzG0RD-24" value="" style="endArrow=none;html=1;rounded=0;" parent="1" source="fqYqqV2FEP6NsdqzG0RD-23" target="LoS6PslLuwaPHfb9e8Ou-1" edge="1">
          <mxGeometry width="50" height="50" relative="1" as="geometry">
            <mxPoint x="-355" y="-428" as="sourcePoint" />
            <mxPoint x="-299" y="-390" as="targetPoint" />
          </mxGeometry>
        </mxCell>
        <mxCell id="fqYqqV2FEP6NsdqzG0RD-25" value="Make up for" style="rhombus;whiteSpace=wrap;html=1;fillColor=#fad7ac;strokeColor=#b46504;" parent="1" vertex="1">
          <mxGeometry x="-435" y="-537.5" width="130" height="50" as="geometry" />
        </mxCell>
        <mxCell id="fqYqqV2FEP6NsdqzG0RD-26" value="1" style="endArrow=none;html=1;rounded=0;exitX=0.16;exitY=0.025;exitDx=0;exitDy=0;exitPerimeter=0;entryX=0.304;entryY=0.798;entryDx=0;entryDy=0;entryPerimeter=0;" parent="1" source="LoS6PslLuwaPHfb9e8Ou-1" target="fqYqqV2FEP6NsdqzG0RD-25" edge="1">
          <mxGeometry x="0.673" y="10" width="50" height="50" relative="1" as="geometry">
            <mxPoint x="-298" y="-400" as="sourcePoint" />
            <mxPoint x="-100" y="-570" as="targetPoint" />
            <mxPoint as="offset" />
          </mxGeometry>
        </mxCell>
        <mxCell id="fqYqqV2FEP6NsdqzG0RD-27" value="" style="endArrow=none;html=1;rounded=0;entryX=0.802;entryY=0.706;entryDx=0;entryDy=0;entryPerimeter=0;exitX=0.421;exitY=0.012;exitDx=0;exitDy=0;exitPerimeter=0;" parent="1" source="LoS6PslLuwaPHfb9e8Ou-1" target="fqYqqV2FEP6NsdqzG0RD-25" edge="1">
          <mxGeometry width="50" height="50" relative="1" as="geometry">
            <mxPoint x="-277" y="-390" as="sourcePoint" />
            <mxPoint x="-335" y="-554" as="targetPoint" />
          </mxGeometry>
        </mxCell>
        <mxCell id="fqYqqV2FEP6NsdqzG0RD-28" value="1" style="edgeLabel;html=1;align=center;verticalAlign=middle;resizable=0;points=[];" parent="fqYqqV2FEP6NsdqzG0RD-27" connectable="0" vertex="1">
          <mxGeometry x="0.2458" y="-3" relative="1" as="geometry">
            <mxPoint x="2" y="-25" as="offset" />
          </mxGeometry>
        </mxCell>
        <mxCell id="fqYqqV2FEP6NsdqzG0RD-29" value="" style="endArrow=none;html=1;rounded=0;exitX=1;exitY=0.75;exitDx=0;exitDy=0;shape=link;" parent="1" source="LoS6PslLuwaPHfb9e8Ou-1" target="LoS6PslLuwaPHfb9e8Ou-7" edge="1">
          <mxGeometry width="50" height="50" relative="1" as="geometry">
            <mxPoint x="-180" y="-555" as="sourcePoint" />
            <mxPoint x="-130" y="-605" as="targetPoint" />
          </mxGeometry>
        </mxCell>
        <mxCell id="fqYqqV2FEP6NsdqzG0RD-30" value="N" style="edgeLabel;html=1;align=center;verticalAlign=middle;resizable=0;points=[];" parent="fqYqqV2FEP6NsdqzG0RD-29" connectable="0" vertex="1">
          <mxGeometry x="-0.1588" y="2" relative="1" as="geometry">
            <mxPoint x="411" y="-8" as="offset" />
          </mxGeometry>
        </mxCell>
        <mxCell id="38l4PNe81qE2Vj1sAycu-3" value="Need to check&amp;nbsp; if the supervisor is the same person in Note for class relationship" style="text;html=1;strokeColor=none;fillColor=none;align=center;verticalAlign=middle;whiteSpace=wrap;rounded=0;" parent="1" vertex="1">
          <mxGeometry x="-230" y="-890" width="100" height="45" as="geometry" />
        </mxCell>
        <mxCell id="38l4PNe81qE2Vj1sAycu-4" value="Note" style="ellipse;whiteSpace=wrap;html=1;" parent="1" vertex="1">
          <mxGeometry x="-412.5" y="-799" width="85" height="34" as="geometry" />
        </mxCell>
        <mxCell id="38l4PNe81qE2Vj1sAycu-5" value="" style="endArrow=none;html=1;rounded=0;" parent="1" source="38l4PNe81qE2Vj1sAycu-4" target="fqYqqV2FEP6NsdqzG0RD-1" edge="1">
          <mxGeometry width="50" height="50" relative="1" as="geometry">
            <mxPoint x="-150" y="-761" as="sourcePoint" />
            <mxPoint x="-128" y="-746" as="targetPoint" />
          </mxGeometry>
        </mxCell>
        <mxCell id="ryPHXSGai1All4PAzSxg-1" value="Current number of students" style="ellipse;whiteSpace=wrap;html=1;" parent="1" vertex="1">
          <mxGeometry x="361" y="-445" width="85" height="50" as="geometry" />
        </mxCell>
        <mxCell id="ryPHXSGai1All4PAzSxg-2" value="" style="endArrow=none;html=1;rounded=0;" parent="1" source="ryPHXSGai1All4PAzSxg-1" target="NsBa4VDJcEfUwtNfSTFL-3" edge="1">
          <mxGeometry width="50" height="50" relative="1" as="geometry">
            <mxPoint x="415" y="-463" as="sourcePoint" />
            <mxPoint x="395" y="-467" as="targetPoint" />
          </mxGeometry>
        </mxCell>
        <mxCell id="Xa7vmcvFHaN_zs3zjcBk-1" value="Timetable" style="rounded=0;whiteSpace=wrap;html=1;fillColor=#dae8fc;strokeColor=#6c8ebf;" parent="1" vertex="1">
          <mxGeometry x="-780" y="-460" width="120" height="60" as="geometry" />
        </mxCell>
        <mxCell id="Xa7vmcvFHaN_zs3zjcBk-2" value="Start-hour" style="ellipse;whiteSpace=wrap;html=1;" parent="1" vertex="1">
          <mxGeometry x="-675" y="-621.5" width="85" height="50" as="geometry" />
        </mxCell>
        <mxCell id="Xa7vmcvFHaN_zs3zjcBk-3" value="" style="endArrow=none;html=1;rounded=0;" parent="1" source="Xa7vmcvFHaN_zs3zjcBk-10" target="Xa7vmcvFHaN_zs3zjcBk-2" edge="1">
          <mxGeometry width="50" height="50" relative="1" as="geometry">
            <mxPoint x="-980" y="-179.5" as="sourcePoint" />
            <mxPoint x="-1124" y="-227.5" as="targetPoint" />
          </mxGeometry>
        </mxCell>
        <mxCell id="Xa7vmcvFHaN_zs3zjcBk-4" value="End-hour" style="ellipse;whiteSpace=wrap;html=1;" parent="1" vertex="1">
          <mxGeometry x="-780" y="-660" width="85" height="50" as="geometry" />
        </mxCell>
        <mxCell id="Xa7vmcvFHaN_zs3zjcBk-5" value="" style="endArrow=none;html=1;rounded=0;" parent="1" source="Xa7vmcvFHaN_zs3zjcBk-10" target="Xa7vmcvFHaN_zs3zjcBk-4" edge="1">
          <mxGeometry width="50" height="50" relative="1" as="geometry">
            <mxPoint x="-958" y="-191.5" as="sourcePoint" />
            <mxPoint x="-1249" y="-197.5" as="targetPoint" />
          </mxGeometry>
        </mxCell>
        <mxCell id="Xa7vmcvFHaN_zs3zjcBk-8" value="1" style="endArrow=none;html=1;rounded=0;" parent="1" source="Xa7vmcvFHaN_zs3zjcBk-14" target="Xa7vmcvFHaN_zs3zjcBk-1" edge="1">
          <mxGeometry x="-0.0987" y="-11" width="50" height="50" relative="1" as="geometry">
            <mxPoint x="-703.59375" y="-331.09375" as="sourcePoint" />
            <mxPoint x="-661" y="-290" as="targetPoint" />
            <mxPoint as="offset" />
          </mxGeometry>
        </mxCell>
        <mxCell id="Xa7vmcvFHaN_zs3zjcBk-10" value="&lt;u&gt;Period&lt;/u&gt;" style="ellipse;whiteSpace=wrap;html=1;" parent="1" vertex="1">
          <mxGeometry x="-780" y="-560" width="85" height="50" as="geometry" />
        </mxCell>
        <mxCell id="Xa7vmcvFHaN_zs3zjcBk-11" value="" style="endArrow=none;html=1;rounded=0;" parent="1" source="Xa7vmcvFHaN_zs3zjcBk-10" target="Xa7vmcvFHaN_zs3zjcBk-1" edge="1">
          <mxGeometry width="50" height="50" relative="1" as="geometry">
            <mxPoint x="-950" y="-162" as="sourcePoint" />
            <mxPoint x="-1011" y="-183" as="targetPoint" />
          </mxGeometry>
        </mxCell>
        <mxCell id="Xa7vmcvFHaN_zs3zjcBk-12" value="Session time" style="shape=ext;margin=3;double=1;whiteSpace=wrap;html=1;align=center;fillColor=#DAE8FC;strokeColor=#6C8EBF;" parent="1" vertex="1">
          <mxGeometry x="-590" y="-345" width="100" height="40" as="geometry" />
        </mxCell>
        <mxCell id="Xa7vmcvFHaN_zs3zjcBk-13" value="&lt;span style=&quot;border-bottom: 1px dotted&quot;&gt;Date&lt;/span&gt;" style="ellipse;whiteSpace=wrap;html=1;align=center;" parent="1" vertex="1">
          <mxGeometry x="-585" y="-270" width="80" height="40" as="geometry" />
        </mxCell>
        <mxCell id="Xa7vmcvFHaN_zs3zjcBk-14" value="Time period" style="shape=rhombus;double=1;perimeter=rhombusPerimeter;whiteSpace=wrap;html=1;align=center;fillColor=#FAD7AC;strokeColor=#B46504;" parent="1" vertex="1">
          <mxGeometry x="-770" y="-350" width="120" height="60" as="geometry" />
        </mxCell>
        <mxCell id="Xa7vmcvFHaN_zs3zjcBk-15" value="N" style="endArrow=none;html=1;rounded=0;shape=link;" parent="1" source="Xa7vmcvFHaN_zs3zjcBk-14" target="Xa7vmcvFHaN_zs3zjcBk-12" edge="1">
          <mxGeometry x="-0.5669" y="13" width="50" height="50" relative="1" as="geometry">
            <mxPoint x="-350" y="-370" as="sourcePoint" />
            <mxPoint x="-320" y="-370" as="targetPoint" />
            <mxPoint as="offset" />
          </mxGeometry>
        </mxCell>
        <mxCell id="p2A0RfCc_70xDcUPMMr9-1" value="" style="endArrow=none;html=1;rounded=0;" parent="1" source="NsBa4VDJcEfUwtNfSTFL-3" target="NsBa4VDJcEfUwtNfSTFL-30" edge="1">
          <mxGeometry width="50" height="50" relative="1" as="geometry">
            <mxPoint x="325" y="-737" as="sourcePoint" />
            <mxPoint x="257" y="-880" as="targetPoint" />
          </mxGeometry>
        </mxCell>
        <mxCell id="p2A0RfCc_70xDcUPMMr9-2" value="N" style="edgeLabel;html=1;align=center;verticalAlign=middle;resizable=0;points=[];" parent="p2A0RfCc_70xDcUPMMr9-1" connectable="0" vertex="1">
          <mxGeometry x="-0.5819" y="1" relative="1" as="geometry">
            <mxPoint x="-12" y="-137" as="offset" />
          </mxGeometry>
        </mxCell>
        <mxCell id="p2A0RfCc_70xDcUPMMr9-3" value="" style="endArrow=none;html=1;rounded=0;" parent="1" source="NsBa4VDJcEfUwtNfSTFL-3" target="NsBa4VDJcEfUwtNfSTFL-23" edge="1">
          <mxGeometry width="50" height="50" relative="1" as="geometry">
            <mxPoint x="335" y="-510" as="sourcePoint" />
            <mxPoint x="335" y="-690" as="targetPoint" />
          </mxGeometry>
        </mxCell>
        <mxCell id="6ngO0D7BVt3tkF17eJtb-1" value="This relationship is the result of &quot;Teacher attendance&quot; relationship" style="text;html=1;strokeColor=none;fillColor=none;align=center;verticalAlign=middle;whiteSpace=wrap;rounded=0;" parent="1" vertex="1">
          <mxGeometry x="427.5" y="-750" width="100" height="45" as="geometry" />
        </mxCell>
      </root>
    </mxGraphModel>
  </diagram>
  <diagram name="Page-1" id="KcpRlHwwisE72_F1OleH">
    <mxGraphModel dx="3208" dy="2368" grid="1" gridSize="10" guides="1" tooltips="1" connect="1" arrows="1" fold="1" page="1" pageScale="1" pageWidth="850" pageHeight="1100" math="0" shadow="0">
      <root>
        <mxCell id="0" />
        <mxCell id="1" parent="0" />
        <mxCell id="mr6lbZ1328Sc4nQ17jco-1" value="Teacher" style="rounded=0;whiteSpace=wrap;html=1;fillColor=#dae8fc;strokeColor=#6c8ebf;" parent="1" vertex="1">
          <mxGeometry x="-305" y="-730" width="120" height="60" as="geometry" />
        </mxCell>
        <mxCell id="mr6lbZ1328Sc4nQ17jco-2" value="Student" style="rounded=0;whiteSpace=wrap;html=1;fillColor=#dae8fc;strokeColor=#6c8ebf;" parent="1" vertex="1">
          <mxGeometry x="-305" y="-185" width="120" height="60" as="geometry" />
        </mxCell>
        <mxCell id="mr6lbZ1328Sc4nQ17jco-3" value="Class" style="rounded=0;whiteSpace=wrap;html=1;fillColor=#dae8fc;strokeColor=#6c8ebf;" parent="1" vertex="1">
          <mxGeometry x="-305" y="-460" width="120" height="60" as="geometry" />
        </mxCell>
        <mxCell id="mr6lbZ1328Sc4nQ17jco-10" value="Employee" style="rounded=0;whiteSpace=wrap;html=1;fillColor=#dae8fc;strokeColor=#6c8ebf;" parent="1" vertex="1">
          <mxGeometry x="-304.5" y="-980" width="120" height="60" as="geometry" />
        </mxCell>
        <mxCell id="mr6lbZ1328Sc4nQ17jco-11" value="Supervisor" style="rounded=0;whiteSpace=wrap;html=1;fillColor=#dae8fc;strokeColor=#6c8ebf;" parent="1" vertex="1">
          <mxGeometry x="-92" y="-730" width="120" height="60" as="geometry" />
        </mxCell>
        <mxCell id="mr6lbZ1328Sc4nQ17jco-12" value="Admin" style="rounded=0;whiteSpace=wrap;html=1;fillColor=#dae8fc;strokeColor=#6c8ebf;" parent="1" vertex="1">
          <mxGeometry x="-510" y="-730" width="120" height="60" as="geometry" />
        </mxCell>
        <mxCell id="mr6lbZ1328Sc4nQ17jco-13" value="d" style="ellipse;whiteSpace=wrap;html=1;aspect=fixed;" parent="1" vertex="1">
          <mxGeometry x="-259.5" y="-820" width="30" height="30" as="geometry" />
        </mxCell>
        <mxCell id="mr6lbZ1328Sc4nQ17jco-14" value="" style="endArrow=none;html=1;rounded=0;shape=link;" parent="1" source="mr6lbZ1328Sc4nQ17jco-13" target="mr6lbZ1328Sc4nQ17jco-10" edge="1">
          <mxGeometry width="50" height="50" relative="1" as="geometry">
            <mxPoint x="-39.5" y="-740" as="sourcePoint" />
            <mxPoint x="10.5" y="-790" as="targetPoint" />
          </mxGeometry>
        </mxCell>
        <mxCell id="mr6lbZ1328Sc4nQ17jco-23" value="&lt;u&gt;SSN&lt;/u&gt;" style="ellipse;whiteSpace=wrap;html=1;" parent="1" vertex="1">
          <mxGeometry x="-412" y="-930" width="85" height="50" as="geometry" />
        </mxCell>
        <mxCell id="mr6lbZ1328Sc4nQ17jco-24" value="Name" style="ellipse;whiteSpace=wrap;html=1;" parent="1" vertex="1">
          <mxGeometry x="-431" y="-990" width="85" height="50" as="geometry" />
        </mxCell>
        <mxCell id="mr6lbZ1328Sc4nQ17jco-25" value="Phone" style="ellipse;whiteSpace=wrap;html=1;" parent="1" vertex="1">
          <mxGeometry x="-412" y="-1050" width="85" height="50" as="geometry" />
        </mxCell>
        <mxCell id="mr6lbZ1328Sc4nQ17jco-26" value="Username" style="ellipse;whiteSpace=wrap;html=1;" parent="1" vertex="1">
          <mxGeometry x="-323.75" y="-1090" width="85" height="50" as="geometry" />
        </mxCell>
        <mxCell id="mr6lbZ1328Sc4nQ17jco-28" value="Password" style="ellipse;whiteSpace=wrap;html=1;" parent="1" vertex="1">
          <mxGeometry x="-220" y="-1080" width="85" height="50" as="geometry" />
        </mxCell>
        <mxCell id="mr6lbZ1328Sc4nQ17jco-29" value="Email" style="ellipse;whiteSpace=wrap;html=1;" parent="1" vertex="1">
          <mxGeometry x="-135" y="-940" width="85" height="50" as="geometry" />
        </mxCell>
        <mxCell id="mr6lbZ1328Sc4nQ17jco-30" value="Address" style="ellipse;whiteSpace=wrap;html=1;" parent="1" vertex="1">
          <mxGeometry x="-155.25" y="-880" width="85" height="50" as="geometry" />
        </mxCell>
        <mxCell id="mr6lbZ1328Sc4nQ17jco-31" value="" style="endArrow=none;html=1;rounded=0;" parent="1" source="mr6lbZ1328Sc4nQ17jco-10" target="mr6lbZ1328Sc4nQ17jco-23" edge="1">
          <mxGeometry width="50" height="50" relative="1" as="geometry">
            <mxPoint x="-327" y="-800" as="sourcePoint" />
            <mxPoint x="-277" y="-850" as="targetPoint" />
          </mxGeometry>
        </mxCell>
        <mxCell id="mr6lbZ1328Sc4nQ17jco-32" value="" style="endArrow=none;html=1;rounded=0;" parent="1" source="mr6lbZ1328Sc4nQ17jco-10" target="mr6lbZ1328Sc4nQ17jco-24" edge="1">
          <mxGeometry width="50" height="50" relative="1" as="geometry">
            <mxPoint x="-302" y="-925" as="sourcePoint" />
            <mxPoint x="-329" y="-913" as="targetPoint" />
          </mxGeometry>
        </mxCell>
        <mxCell id="mr6lbZ1328Sc4nQ17jco-33" value="" style="endArrow=none;html=1;rounded=0;" parent="1" source="mr6lbZ1328Sc4nQ17jco-10" target="mr6lbZ1328Sc4nQ17jco-25" edge="1">
          <mxGeometry width="50" height="50" relative="1" as="geometry">
            <mxPoint x="-287" y="-980" as="sourcePoint" />
            <mxPoint x="-352" y="-955" as="targetPoint" />
          </mxGeometry>
        </mxCell>
        <mxCell id="mr6lbZ1328Sc4nQ17jco-34" value="" style="endArrow=none;html=1;rounded=0;" parent="1" source="mr6lbZ1328Sc4nQ17jco-10" target="mr6lbZ1328Sc4nQ17jco-26" edge="1">
          <mxGeometry width="50" height="50" relative="1" as="geometry">
            <mxPoint x="-277" y="-970" as="sourcePoint" />
            <mxPoint x="-304" y="-987" as="targetPoint" />
          </mxGeometry>
        </mxCell>
        <mxCell id="mr6lbZ1328Sc4nQ17jco-35" value="" style="endArrow=none;html=1;rounded=0;" parent="1" source="mr6lbZ1328Sc4nQ17jco-10" target="mr6lbZ1328Sc4nQ17jco-28" edge="1">
          <mxGeometry width="50" height="50" relative="1" as="geometry">
            <mxPoint x="-242" y="-970" as="sourcePoint" />
            <mxPoint x="-242" y="-1010" as="targetPoint" />
          </mxGeometry>
        </mxCell>
        <mxCell id="mr6lbZ1328Sc4nQ17jco-36" value="" style="endArrow=none;html=1;rounded=0;" parent="1" source="mr6lbZ1328Sc4nQ17jco-10" target="mr6lbZ1328Sc4nQ17jco-29" edge="1">
          <mxGeometry width="50" height="50" relative="1" as="geometry">
            <mxPoint x="-212" y="-970" as="sourcePoint" />
            <mxPoint x="-188" y="-987" as="targetPoint" />
          </mxGeometry>
        </mxCell>
        <mxCell id="mr6lbZ1328Sc4nQ17jco-37" value="" style="endArrow=none;html=1;rounded=0;" parent="1" source="mr6lbZ1328Sc4nQ17jco-10" target="mr6lbZ1328Sc4nQ17jco-30" edge="1">
          <mxGeometry width="50" height="50" relative="1" as="geometry">
            <mxPoint x="-182" y="-955" as="sourcePoint" />
            <mxPoint x="-142" y="-955" as="targetPoint" />
          </mxGeometry>
        </mxCell>
        <mxCell id="mr6lbZ1328Sc4nQ17jco-55" value="In class" style="rhombus;whiteSpace=wrap;html=1;fillColor=#fad7ac;strokeColor=#b46504;" parent="1" vertex="1">
          <mxGeometry x="-299.5" y="-310" width="110" height="50" as="geometry" />
        </mxCell>
        <mxCell id="mr6lbZ1328Sc4nQ17jco-58" value="&lt;u&gt;Name&lt;/u&gt;" style="ellipse;whiteSpace=wrap;html=1;" parent="1" vertex="1">
          <mxGeometry x="-380" y="-530" width="85" height="50" as="geometry" />
        </mxCell>
        <mxCell id="mr6lbZ1328Sc4nQ17jco-61" value="Name" style="ellipse;whiteSpace=wrap;html=1;" parent="1" vertex="1">
          <mxGeometry x="-372.5" y="-70" width="85" height="50" as="geometry" />
        </mxCell>
        <mxCell id="mr6lbZ1328Sc4nQ17jco-62" value="&lt;u&gt;SSN&lt;/u&gt;" style="ellipse;whiteSpace=wrap;html=1;" parent="1" vertex="1">
          <mxGeometry x="-287.5" y="-60" width="85" height="50" as="geometry" />
        </mxCell>
        <mxCell id="mr6lbZ1328Sc4nQ17jco-65" value="Phone" style="ellipse;whiteSpace=wrap;html=1;" parent="1" vertex="1">
          <mxGeometry x="-185" y="-60" width="85" height="50" as="geometry" />
        </mxCell>
        <mxCell id="mr6lbZ1328Sc4nQ17jco-66" value="Email" style="ellipse;whiteSpace=wrap;html=1;" parent="1" vertex="1">
          <mxGeometry x="-475" y="-90" width="85" height="50" as="geometry" />
        </mxCell>
        <mxCell id="mr6lbZ1328Sc4nQ17jco-67" value="Address" style="ellipse;whiteSpace=wrap;html=1;" parent="1" vertex="1">
          <mxGeometry x="-92" y="-110" width="85" height="50" as="geometry" />
        </mxCell>
        <mxCell id="mr6lbZ1328Sc4nQ17jco-69" value="Responsible" style="rhombus;whiteSpace=wrap;html=1;fillColor=#fad7ac;strokeColor=#b46504;" parent="1" vertex="1">
          <mxGeometry x="-318.75" y="-580" width="150" height="50" as="geometry" />
        </mxCell>
        <mxCell id="mr6lbZ1328Sc4nQ17jco-71" value="&lt;u&gt;ID&lt;/u&gt;" style="ellipse;whiteSpace=wrap;html=1;" parent="1" vertex="1">
          <mxGeometry x="285" y="-455" width="85" height="50" as="geometry" />
        </mxCell>
        <mxCell id="mr6lbZ1328Sc4nQ17jco-82" value="" style="endArrow=none;html=1;rounded=0;" parent="1" source="mr6lbZ1328Sc4nQ17jco-58" target="mr6lbZ1328Sc4nQ17jco-3" edge="1">
          <mxGeometry width="50" height="50" relative="1" as="geometry">
            <mxPoint x="-324" y="-420" as="sourcePoint" />
            <mxPoint x="-290" y="-420" as="targetPoint" />
          </mxGeometry>
        </mxCell>
        <mxCell id="mr6lbZ1328Sc4nQ17jco-86" value="" style="endArrow=none;html=1;rounded=0;" parent="1" source="mr6lbZ1328Sc4nQ17jco-66" target="mr6lbZ1328Sc4nQ17jco-2" edge="1">
          <mxGeometry width="50" height="50" relative="1" as="geometry">
            <mxPoint x="-298.75" y="-190" as="sourcePoint" />
            <mxPoint x="-248.75" y="-240" as="targetPoint" />
          </mxGeometry>
        </mxCell>
        <mxCell id="mr6lbZ1328Sc4nQ17jco-87" value="" style="endArrow=none;html=1;rounded=0;" parent="1" source="mr6lbZ1328Sc4nQ17jco-2" target="mr6lbZ1328Sc4nQ17jco-67" edge="1">
          <mxGeometry width="50" height="50" relative="1" as="geometry">
            <mxPoint x="-298.75" y="-190" as="sourcePoint" />
            <mxPoint x="-248.75" y="-240" as="targetPoint" />
          </mxGeometry>
        </mxCell>
        <mxCell id="mr6lbZ1328Sc4nQ17jco-88" value="" style="endArrow=none;html=1;rounded=0;" parent="1" source="mr6lbZ1328Sc4nQ17jco-61" target="mr6lbZ1328Sc4nQ17jco-2" edge="1">
          <mxGeometry width="50" height="50" relative="1" as="geometry">
            <mxPoint x="-298.75" y="-190" as="sourcePoint" />
            <mxPoint x="-248.75" y="-240" as="targetPoint" />
          </mxGeometry>
        </mxCell>
        <mxCell id="mr6lbZ1328Sc4nQ17jco-89" value="" style="endArrow=none;html=1;rounded=0;" parent="1" source="mr6lbZ1328Sc4nQ17jco-62" target="mr6lbZ1328Sc4nQ17jco-2" edge="1">
          <mxGeometry width="50" height="50" relative="1" as="geometry">
            <mxPoint x="-305.75" y="-93" as="sourcePoint" />
            <mxPoint x="-293.75" y="-110" as="targetPoint" />
          </mxGeometry>
        </mxCell>
        <mxCell id="mr6lbZ1328Sc4nQ17jco-90" value="" style="endArrow=none;html=1;rounded=0;" parent="1" source="mr6lbZ1328Sc4nQ17jco-65" target="mr6lbZ1328Sc4nQ17jco-2" edge="1">
          <mxGeometry width="50" height="50" relative="1" as="geometry">
            <mxPoint x="-305.75" y="-93" as="sourcePoint" />
            <mxPoint x="-293.75" y="-110" as="targetPoint" />
          </mxGeometry>
        </mxCell>
        <mxCell id="mr6lbZ1328Sc4nQ17jco-91" value="" style="endArrow=none;html=1;rounded=0;" parent="1" source="mr6lbZ1328Sc4nQ17jco-69" target="mr6lbZ1328Sc4nQ17jco-1" edge="1">
          <mxGeometry width="50" height="50" relative="1" as="geometry">
            <mxPoint x="-150" y="-450" as="sourcePoint" />
            <mxPoint x="-100" y="-500" as="targetPoint" />
          </mxGeometry>
        </mxCell>
        <mxCell id="mr6lbZ1328Sc4nQ17jco-138" value="1" style="edgeLabel;html=1;align=center;verticalAlign=middle;resizable=0;points=[];" parent="mr6lbZ1328Sc4nQ17jco-91" connectable="0" vertex="1">
          <mxGeometry x="-0.5819" y="1" relative="1" as="geometry">
            <mxPoint x="-13" as="offset" />
          </mxGeometry>
        </mxCell>
        <mxCell id="mr6lbZ1328Sc4nQ17jco-103" value="" style="endArrow=none;html=1;rounded=0;exitX=1;exitY=0.5;exitDx=0;exitDy=0;entryX=0;entryY=0.5;entryDx=0;entryDy=0;startArrow=none;exitPerimeter=0;" parent="1" source="mr6lbZ1328Sc4nQ17jco-130" target="mr6lbZ1328Sc4nQ17jco-13" edge="1">
          <mxGeometry width="50" height="50" relative="1" as="geometry">
            <mxPoint x="-160" y="-630" as="sourcePoint" />
            <mxPoint x="-110" y="-680" as="targetPoint" />
          </mxGeometry>
        </mxCell>
        <mxCell id="mr6lbZ1328Sc4nQ17jco-104" value="" style="endArrow=none;html=1;rounded=0;exitX=1;exitY=0.5;exitDx=0;exitDy=0;entryX=0.5;entryY=1;entryDx=0;entryDy=0;startArrow=none;exitPerimeter=0;" parent="1" source="mr6lbZ1328Sc4nQ17jco-132" target="mr6lbZ1328Sc4nQ17jco-13" edge="1">
          <mxGeometry width="50" height="50" relative="1" as="geometry">
            <mxPoint x="-380" y="-720" as="sourcePoint" />
            <mxPoint x="-245" y="-795" as="targetPoint" />
          </mxGeometry>
        </mxCell>
        <mxCell id="mr6lbZ1328Sc4nQ17jco-105" value="" style="endArrow=none;html=1;rounded=0;entryX=1;entryY=0.5;entryDx=0;entryDy=0;exitX=1;exitY=0.5;exitDx=0;exitDy=0;startArrow=none;exitPerimeter=0;" parent="1" source="mr6lbZ1328Sc4nQ17jco-134" target="mr6lbZ1328Sc4nQ17jco-13" edge="1">
          <mxGeometry width="50" height="50" relative="1" as="geometry">
            <mxPoint x="-90" y="-700" as="sourcePoint" />
            <mxPoint x="-40" y="-750" as="targetPoint" />
          </mxGeometry>
        </mxCell>
        <mxCell id="mr6lbZ1328Sc4nQ17jco-115" value="Report for class" style="rounded=0;whiteSpace=wrap;html=1;fillColor=#dae8fc;strokeColor=#6c8ebf;" parent="1" vertex="1">
          <mxGeometry x="120" y="-460" width="120" height="60" as="geometry" />
        </mxCell>
        <mxCell id="mr6lbZ1328Sc4nQ17jco-117" value="" style="endArrow=none;html=1;rounded=0;shape=link;" parent="1" source="mr6lbZ1328Sc4nQ17jco-69" target="mr6lbZ1328Sc4nQ17jco-3" edge="1">
          <mxGeometry width="50" height="50" relative="1" as="geometry">
            <mxPoint x="-420" y="-500" as="sourcePoint" />
            <mxPoint x="-250" y="-540" as="targetPoint" />
          </mxGeometry>
        </mxCell>
        <mxCell id="mr6lbZ1328Sc4nQ17jco-136" value="N" style="edgeLabel;html=1;align=center;verticalAlign=middle;resizable=0;points=[];" parent="mr6lbZ1328Sc4nQ17jco-117" connectable="0" vertex="1">
          <mxGeometry x="-0.2648" y="-3" relative="1" as="geometry">
            <mxPoint x="-11" y="-15" as="offset" />
          </mxGeometry>
        </mxCell>
        <mxCell id="mr6lbZ1328Sc4nQ17jco-118" value="Attendance" style="rhombus;whiteSpace=wrap;html=1;fillColor=#fad7ac;strokeColor=#b46504;" parent="1" vertex="1">
          <mxGeometry x="-87" y="-455" width="110" height="50" as="geometry" />
        </mxCell>
        <mxCell id="mr6lbZ1328Sc4nQ17jco-119" value="1" style="endArrow=none;html=1;rounded=0;shape=link;" parent="1" source="mr6lbZ1328Sc4nQ17jco-3" target="mr6lbZ1328Sc4nQ17jco-118" edge="1">
          <mxGeometry x="0.9492" y="10" width="50" height="50" relative="1" as="geometry">
            <mxPoint x="-180" y="-545" as="sourcePoint" />
            <mxPoint x="-25" y="-710" as="targetPoint" />
            <mxPoint as="offset" />
          </mxGeometry>
        </mxCell>
        <mxCell id="mr6lbZ1328Sc4nQ17jco-120" value="" style="endArrow=none;html=1;rounded=0;shape=link;" parent="1" source="mr6lbZ1328Sc4nQ17jco-118" target="mr6lbZ1328Sc4nQ17jco-115" edge="1">
          <mxGeometry width="50" height="50" relative="1" as="geometry">
            <mxPoint x="-110" y="-450" as="sourcePoint" />
            <mxPoint x="-60" y="-500" as="targetPoint" />
          </mxGeometry>
        </mxCell>
        <mxCell id="mr6lbZ1328Sc4nQ17jco-139" value="N" style="edgeLabel;html=1;align=center;verticalAlign=middle;resizable=0;points=[];" parent="mr6lbZ1328Sc4nQ17jco-120" connectable="0" vertex="1">
          <mxGeometry x="-0.526" y="-3" relative="1" as="geometry">
            <mxPoint x="-11" y="-13" as="offset" />
          </mxGeometry>
        </mxCell>
        <mxCell id="mr6lbZ1328Sc4nQ17jco-121" value="Date" style="ellipse;whiteSpace=wrap;html=1;" parent="1" vertex="1">
          <mxGeometry y="-405" width="85" height="50" as="geometry" />
        </mxCell>
        <mxCell id="mr6lbZ1328Sc4nQ17jco-122" value="" style="endArrow=none;html=1;rounded=0;" parent="1" source="mr6lbZ1328Sc4nQ17jco-118" target="mr6lbZ1328Sc4nQ17jco-121" edge="1">
          <mxGeometry width="50" height="50" relative="1" as="geometry">
            <mxPoint x="-110" y="-450" as="sourcePoint" />
            <mxPoint x="-60" y="-500" as="targetPoint" />
          </mxGeometry>
        </mxCell>
        <mxCell id="mr6lbZ1328Sc4nQ17jco-123" value="" style="endArrow=none;html=1;rounded=0;shape=link;" parent="1" source="mr6lbZ1328Sc4nQ17jco-55" target="mr6lbZ1328Sc4nQ17jco-3" edge="1">
          <mxGeometry width="50" height="50" relative="1" as="geometry">
            <mxPoint x="-260" y="-230" as="sourcePoint" />
            <mxPoint x="-210" y="-280" as="targetPoint" />
          </mxGeometry>
        </mxCell>
        <mxCell id="mr6lbZ1328Sc4nQ17jco-124" value="" style="endArrow=none;html=1;rounded=0;" parent="1" source="mr6lbZ1328Sc4nQ17jco-2" target="mr6lbZ1328Sc4nQ17jco-55" edge="1">
          <mxGeometry width="50" height="50" relative="1" as="geometry">
            <mxPoint x="-260" y="-230" as="sourcePoint" />
            <mxPoint x="-250" y="-260" as="targetPoint" />
          </mxGeometry>
        </mxCell>
        <mxCell id="mr6lbZ1328Sc4nQ17jco-141" value="1" style="edgeLabel;html=1;align=center;verticalAlign=middle;resizable=0;points=[];" parent="mr6lbZ1328Sc4nQ17jco-124" connectable="0" vertex="1">
          <mxGeometry x="0.3124" y="2" relative="1" as="geometry">
            <mxPoint x="17" y="-87" as="offset" />
          </mxGeometry>
        </mxCell>
        <mxCell id="mr6lbZ1328Sc4nQ17jco-142" value="20" style="edgeLabel;html=1;align=center;verticalAlign=middle;resizable=0;points=[];" parent="mr6lbZ1328Sc4nQ17jco-124" connectable="0" vertex="1">
          <mxGeometry x="0.2658" y="-3" relative="1" as="geometry">
            <mxPoint x="11" y="-19" as="offset" />
          </mxGeometry>
        </mxCell>
        <mxCell id="mr6lbZ1328Sc4nQ17jco-129" value="" style="endArrow=none;html=1;rounded=0;" parent="1" source="mr6lbZ1328Sc4nQ17jco-115" target="mr6lbZ1328Sc4nQ17jco-71" edge="1">
          <mxGeometry width="50" height="50" relative="1" as="geometry">
            <mxPoint x="220" y="-410" as="sourcePoint" />
            <mxPoint x="270" y="-460" as="targetPoint" />
          </mxGeometry>
        </mxCell>
        <mxCell id="mr6lbZ1328Sc4nQ17jco-131" value="" style="endArrow=none;html=1;rounded=0;entryX=1;entryY=0.5;entryDx=0;entryDy=0;entryPerimeter=0;" parent="1" source="mr6lbZ1328Sc4nQ17jco-12" target="mr6lbZ1328Sc4nQ17jco-130" edge="1">
          <mxGeometry width="50" height="50" relative="1" as="geometry">
            <mxPoint x="-390" y="-730" as="sourcePoint" />
            <mxPoint x="-259" y="-805" as="targetPoint" />
          </mxGeometry>
        </mxCell>
        <mxCell id="mr6lbZ1328Sc4nQ17jco-130" value="" style="shape=requiredInterface;html=1;verticalLabelPosition=bottom;sketch=0;rotation=-210;" parent="1" vertex="1">
          <mxGeometry x="-327" y="-780" width="10" height="20" as="geometry" />
        </mxCell>
        <mxCell id="mr6lbZ1328Sc4nQ17jco-133" value="" style="endArrow=none;html=1;rounded=0;entryX=1;entryY=0.5;entryDx=0;entryDy=0;entryPerimeter=0;" parent="1" source="mr6lbZ1328Sc4nQ17jco-1" target="mr6lbZ1328Sc4nQ17jco-132" edge="1">
          <mxGeometry width="50" height="50" relative="1" as="geometry">
            <mxPoint x="-245" y="-730" as="sourcePoint" />
            <mxPoint x="-244" y="-790" as="targetPoint" />
          </mxGeometry>
        </mxCell>
        <mxCell id="mr6lbZ1328Sc4nQ17jco-132" value="" style="shape=requiredInterface;html=1;verticalLabelPosition=bottom;sketch=0;rotation=90;" parent="1" vertex="1">
          <mxGeometry x="-250" y="-770" width="10" height="20" as="geometry" />
        </mxCell>
        <mxCell id="mr6lbZ1328Sc4nQ17jco-135" value="" style="endArrow=none;html=1;rounded=0;entryX=1;entryY=0.5;entryDx=0;entryDy=0;" parent="1" source="mr6lbZ1328Sc4nQ17jco-11" target="mr6lbZ1328Sc4nQ17jco-134" edge="1">
          <mxGeometry width="50" height="50" relative="1" as="geometry">
            <mxPoint x="-95" y="-730" as="sourcePoint" />
            <mxPoint x="-229" y="-805" as="targetPoint" />
          </mxGeometry>
        </mxCell>
        <mxCell id="mr6lbZ1328Sc4nQ17jco-134" value="" style="shape=requiredInterface;html=1;verticalLabelPosition=bottom;sketch=0;rotation=30;" parent="1" vertex="1">
          <mxGeometry x="-165.25" y="-780" width="10" height="20" as="geometry" />
        </mxCell>
        <mxCell id="mr6lbZ1328Sc4nQ17jco-143" value="In" style="rhombus;whiteSpace=wrap;html=1;fillColor=#fad7ac;strokeColor=#b46504;" parent="1" vertex="1">
          <mxGeometry x="-35" y="-290" width="110" height="50" as="geometry" />
        </mxCell>
        <mxCell id="mr6lbZ1328Sc4nQ17jco-144" value="Status of Student" style="ellipse;whiteSpace=wrap;html=1;" parent="1" vertex="1">
          <mxGeometry x="90" y="-250" width="85" height="50" as="geometry" />
        </mxCell>
        <mxCell id="mr6lbZ1328Sc4nQ17jco-145" value="NoteStudent" style="ellipse;whiteSpace=wrap;html=1;dashed=1;dashPattern=12 12;" parent="1" vertex="1">
          <mxGeometry x="50" y="-200" width="85" height="50" as="geometry" />
        </mxCell>
        <mxCell id="mr6lbZ1328Sc4nQ17jco-146" value="" style="endArrow=none;html=1;rounded=0;" parent="1" source="mr6lbZ1328Sc4nQ17jco-2" target="mr6lbZ1328Sc4nQ17jco-143" edge="1">
          <mxGeometry width="50" height="50" relative="1" as="geometry">
            <mxPoint x="-250" y="-270" as="sourcePoint" />
            <mxPoint x="-200" y="-320" as="targetPoint" />
          </mxGeometry>
        </mxCell>
        <mxCell id="mr6lbZ1328Sc4nQ17jco-150" value="20" style="edgeLabel;html=1;align=center;verticalAlign=middle;resizable=0;points=[];" parent="mr6lbZ1328Sc4nQ17jco-146" connectable="0" vertex="1">
          <mxGeometry x="0.4035" y="-1" relative="1" as="geometry">
            <mxPoint x="41" y="-10" as="offset" />
          </mxGeometry>
        </mxCell>
        <mxCell id="mr6lbZ1328Sc4nQ17jco-147" value="" style="endArrow=none;html=1;rounded=0;shape=link;" parent="1" source="mr6lbZ1328Sc4nQ17jco-143" target="mr6lbZ1328Sc4nQ17jco-115" edge="1">
          <mxGeometry width="50" height="50" relative="1" as="geometry">
            <mxPoint x="-250" y="-270" as="sourcePoint" />
            <mxPoint x="-200" y="-320" as="targetPoint" />
          </mxGeometry>
        </mxCell>
        <mxCell id="mr6lbZ1328Sc4nQ17jco-149" value="N" style="edgeLabel;html=1;align=center;verticalAlign=middle;resizable=0;points=[];" parent="mr6lbZ1328Sc4nQ17jco-147" connectable="0" vertex="1">
          <mxGeometry x="0.3258" relative="1" as="geometry">
            <mxPoint x="-70" y="53" as="offset" />
          </mxGeometry>
        </mxCell>
        <mxCell id="mr6lbZ1328Sc4nQ17jco-152" value="" style="endArrow=none;html=1;rounded=0;" parent="1" source="mr6lbZ1328Sc4nQ17jco-143" target="mr6lbZ1328Sc4nQ17jco-144" edge="1">
          <mxGeometry width="50" height="50" relative="1" as="geometry">
            <mxPoint x="-210" y="-270" as="sourcePoint" />
            <mxPoint x="-160" y="-320" as="targetPoint" />
          </mxGeometry>
        </mxCell>
        <mxCell id="OuKYbBuFBpUC1QPKlcSh-10" value="" style="endArrow=none;html=1;rounded=0;" parent="1" source="mr6lbZ1328Sc4nQ17jco-145" target="mr6lbZ1328Sc4nQ17jco-143" edge="1">
          <mxGeometry width="50" height="50" relative="1" as="geometry">
            <mxPoint x="390" y="-345" as="sourcePoint" />
            <mxPoint x="355" y="-345" as="targetPoint" />
          </mxGeometry>
        </mxCell>
        <mxCell id="C4IdqLEfz3TwAbvIQm7Q-1" value="" style="endArrow=none;html=1;rounded=0;shape=link;" parent="1" source="mr6lbZ1328Sc4nQ17jco-118" target="mr6lbZ1328Sc4nQ17jco-1" edge="1">
          <mxGeometry width="50" height="50" relative="1" as="geometry">
            <mxPoint x="-110" y="-480" as="sourcePoint" />
            <mxPoint x="-60" y="-530" as="targetPoint" />
          </mxGeometry>
        </mxCell>
        <mxCell id="C4IdqLEfz3TwAbvIQm7Q-17" value="1" style="edgeLabel;html=1;align=center;verticalAlign=middle;resizable=0;points=[];" parent="C4IdqLEfz3TwAbvIQm7Q-1" connectable="0" vertex="1">
          <mxGeometry x="-0.8302" y="-4" relative="1" as="geometry">
            <mxPoint x="12" y="6" as="offset" />
          </mxGeometry>
        </mxCell>
        <mxCell id="C4IdqLEfz3TwAbvIQm7Q-3" value="Start-day" style="ellipse;whiteSpace=wrap;html=1;" parent="1" vertex="1">
          <mxGeometry x="-475" y="-550" width="85" height="50" as="geometry" />
        </mxCell>
        <mxCell id="C4IdqLEfz3TwAbvIQm7Q-4" value="&lt;span style=&quot;font-weight: normal;&quot;&gt;Period&lt;/span&gt;" style="ellipse;whiteSpace=wrap;html=1;fontStyle=1" parent="1" vertex="1">
          <mxGeometry x="-435" y="-470" width="85" height="50" as="geometry" />
        </mxCell>
        <mxCell id="C4IdqLEfz3TwAbvIQm7Q-5" value="" style="endArrow=none;html=1;rounded=0;" parent="1" source="C4IdqLEfz3TwAbvIQm7Q-3" target="C4IdqLEfz3TwAbvIQm7Q-4" edge="1">
          <mxGeometry width="50" height="50" relative="1" as="geometry">
            <mxPoint x="-306" y="-467" as="sourcePoint" />
            <mxPoint x="-295" y="-450" as="targetPoint" />
          </mxGeometry>
        </mxCell>
        <mxCell id="C4IdqLEfz3TwAbvIQm7Q-6" value="" style="endArrow=none;html=1;rounded=0;" parent="1" source="C4IdqLEfz3TwAbvIQm7Q-4" target="mr6lbZ1328Sc4nQ17jco-3" edge="1">
          <mxGeometry width="50" height="50" relative="1" as="geometry">
            <mxPoint x="-154" y="-467" as="sourcePoint" />
            <mxPoint x="-175" y="-450" as="targetPoint" />
          </mxGeometry>
        </mxCell>
        <mxCell id="C4IdqLEfz3TwAbvIQm7Q-7" value="Status of Teacher" style="ellipse;whiteSpace=wrap;html=1;" parent="1" vertex="1">
          <mxGeometry x="190" y="-680" width="85" height="50" as="geometry" />
        </mxCell>
        <mxCell id="C4IdqLEfz3TwAbvIQm7Q-8" value="NoteTeacher" style="ellipse;whiteSpace=wrap;html=1;dashed=1;dashPattern=8 8;" parent="1" vertex="1">
          <mxGeometry x="260" y="-640" width="85" height="50" as="geometry" />
        </mxCell>
        <mxCell id="C4IdqLEfz3TwAbvIQm7Q-9" value="" style="endArrow=none;html=1;rounded=0;" parent="1" source="C4IdqLEfz3TwAbvIQm7Q-8" target="C4IdqLEfz3TwAbvIQm7Q-11" edge="1">
          <mxGeometry width="50" height="50" relative="1" as="geometry">
            <mxPoint x="473" y="-465" as="sourcePoint" />
            <mxPoint x="453" y="-495" as="targetPoint" />
          </mxGeometry>
        </mxCell>
        <mxCell id="C4IdqLEfz3TwAbvIQm7Q-10" value="" style="endArrow=none;html=1;rounded=0;" parent="1" source="C4IdqLEfz3TwAbvIQm7Q-11" target="C4IdqLEfz3TwAbvIQm7Q-7" edge="1">
          <mxGeometry width="50" height="50" relative="1" as="geometry">
            <mxPoint x="260" y="-630" as="sourcePoint" />
            <mxPoint x="-20" y="-730" as="targetPoint" />
          </mxGeometry>
        </mxCell>
        <mxCell id="C4IdqLEfz3TwAbvIQm7Q-11" value="Manage" style="rhombus;whiteSpace=wrap;html=1;fillColor=#fad7ac;strokeColor=#b46504;" parent="1" vertex="1">
          <mxGeometry x="125" y="-610" width="110" height="50" as="geometry" />
        </mxCell>
        <mxCell id="C4IdqLEfz3TwAbvIQm7Q-12" value="" style="endArrow=none;html=1;rounded=0;shape=link;" parent="1" source="mr6lbZ1328Sc4nQ17jco-3" target="C4IdqLEfz3TwAbvIQm7Q-11" edge="1">
          <mxGeometry width="50" height="50" relative="1" as="geometry">
            <mxPoint x="-110" y="-430" as="sourcePoint" />
            <mxPoint x="-60" y="-480" as="targetPoint" />
          </mxGeometry>
        </mxCell>
        <mxCell id="C4IdqLEfz3TwAbvIQm7Q-19" value="1" style="edgeLabel;html=1;align=center;verticalAlign=middle;resizable=0;points=[];" parent="C4IdqLEfz3TwAbvIQm7Q-12" connectable="0" vertex="1">
          <mxGeometry x="0.8093" y="2" relative="1" as="geometry">
            <mxPoint x="30" y="7" as="offset" />
          </mxGeometry>
        </mxCell>
        <mxCell id="C4IdqLEfz3TwAbvIQm7Q-13" value="" style="endArrow=none;html=1;rounded=0;shape=link;" parent="1" source="C4IdqLEfz3TwAbvIQm7Q-11" target="mr6lbZ1328Sc4nQ17jco-11" edge="1">
          <mxGeometry width="50" height="50" relative="1" as="geometry">
            <mxPoint x="-110" y="-430" as="sourcePoint" />
            <mxPoint x="-60" y="-480" as="targetPoint" />
          </mxGeometry>
        </mxCell>
        <mxCell id="C4IdqLEfz3TwAbvIQm7Q-18" value="1" style="edgeLabel;html=1;align=center;verticalAlign=middle;resizable=0;points=[];" parent="C4IdqLEfz3TwAbvIQm7Q-13" connectable="0" vertex="1">
          <mxGeometry x="-0.7306" y="3" relative="1" as="geometry">
            <mxPoint x="23" y="-16" as="offset" />
          </mxGeometry>
        </mxCell>
        <mxCell id="C4IdqLEfz3TwAbvIQm7Q-15" value="N" style="endArrow=none;html=1;rounded=0;shape=link;" parent="1" source="mr6lbZ1328Sc4nQ17jco-115" target="C4IdqLEfz3TwAbvIQm7Q-11" edge="1">
          <mxGeometry x="0.8057" y="-10" width="50" height="50" relative="1" as="geometry">
            <mxPoint x="-20" y="-430" as="sourcePoint" />
            <mxPoint x="30" y="-480" as="targetPoint" />
            <mxPoint as="offset" />
          </mxGeometry>
        </mxCell>
        <mxCell id="C4IdqLEfz3TwAbvIQm7Q-20" value="Date" style="ellipse;whiteSpace=wrap;html=1;" parent="1" vertex="1">
          <mxGeometry x="230" y="-575" width="85" height="50" as="geometry" />
        </mxCell>
        <mxCell id="C4IdqLEfz3TwAbvIQm7Q-21" value="" style="endArrow=none;html=1;rounded=0;" parent="1" source="C4IdqLEfz3TwAbvIQm7Q-11" target="C4IdqLEfz3TwAbvIQm7Q-20" edge="1">
          <mxGeometry width="50" height="50" relative="1" as="geometry">
            <mxPoint x="235" y="-582" as="sourcePoint" />
            <mxPoint x="179" y="-665" as="targetPoint" />
          </mxGeometry>
        </mxCell>
        <mxCell id="qsle9hhTzuZs_XetErV_-1" value="Birthday" style="ellipse;whiteSpace=wrap;html=1;" parent="1" vertex="1">
          <mxGeometry x="-125" y="-1080" width="85" height="50" as="geometry" />
        </mxCell>
        <mxCell id="qsle9hhTzuZs_XetErV_-2" value="Birthplace" style="ellipse;whiteSpace=wrap;html=1;" parent="1" vertex="1">
          <mxGeometry x="-125" y="-1010" width="85" height="50" as="geometry" />
        </mxCell>
        <mxCell id="qsle9hhTzuZs_XetErV_-3" value="" style="endArrow=none;html=1;rounded=0;" parent="1" source="mr6lbZ1328Sc4nQ17jco-10" target="qsle9hhTzuZs_XetErV_-2" edge="1">
          <mxGeometry width="50" height="50" relative="1" as="geometry">
            <mxPoint x="-174" y="-921" as="sourcePoint" />
            <mxPoint x="-125" y="-905" as="targetPoint" />
          </mxGeometry>
        </mxCell>
        <mxCell id="qsle9hhTzuZs_XetErV_-4" value="" style="endArrow=none;html=1;rounded=0;" parent="1" source="mr6lbZ1328Sc4nQ17jco-10" target="qsle9hhTzuZs_XetErV_-1" edge="1">
          <mxGeometry width="50" height="50" relative="1" as="geometry">
            <mxPoint x="-175" y="-948" as="sourcePoint" />
            <mxPoint x="-115" y="-975" as="targetPoint" />
          </mxGeometry>
        </mxCell>
        <mxCell id="qsle9hhTzuZs_XetErV_-5" value="Birthday" style="ellipse;whiteSpace=wrap;html=1;" parent="1" vertex="1">
          <mxGeometry x="-457.5" y="-160" width="85" height="50" as="geometry" />
        </mxCell>
        <mxCell id="qsle9hhTzuZs_XetErV_-6" value="Birthplace" style="ellipse;whiteSpace=wrap;html=1;" parent="1" vertex="1">
          <mxGeometry x="-92" y="-175" width="85" height="50" as="geometry" />
        </mxCell>
        <mxCell id="qsle9hhTzuZs_XetErV_-7" value="" style="endArrow=none;html=1;rounded=0;" parent="1" source="qsle9hhTzuZs_XetErV_-5" target="mr6lbZ1328Sc4nQ17jco-2" edge="1">
          <mxGeometry width="50" height="50" relative="1" as="geometry">
            <mxPoint x="-370" y="-140" as="sourcePoint" />
            <mxPoint x="-294" y="-125" as="targetPoint" />
          </mxGeometry>
        </mxCell>
        <mxCell id="qsle9hhTzuZs_XetErV_-8" value="" style="endArrow=none;html=1;rounded=0;" parent="1" source="mr6lbZ1328Sc4nQ17jco-2" target="qsle9hhTzuZs_XetErV_-6" edge="1">
          <mxGeometry width="50" height="50" relative="1" as="geometry">
            <mxPoint x="-174" y="-125" as="sourcePoint" />
            <mxPoint x="-90" y="-85" as="targetPoint" />
          </mxGeometry>
        </mxCell>
        <mxCell id="qsle9hhTzuZs_XetErV_-23" value="" style="endArrow=none;html=1;rounded=0;" parent="1" source="mr6lbZ1328Sc4nQ17jco-69" target="mr6lbZ1328Sc4nQ17jco-11" edge="1">
          <mxGeometry width="50" height="50" relative="1" as="geometry">
            <mxPoint x="-235" y="-570" as="sourcePoint" />
            <mxPoint x="-235" y="-660" as="targetPoint" />
          </mxGeometry>
        </mxCell>
        <mxCell id="qsle9hhTzuZs_XetErV_-24" value="1" style="edgeLabel;html=1;align=center;verticalAlign=middle;resizable=0;points=[];" parent="qsle9hhTzuZs_XetErV_-23" connectable="0" vertex="1">
          <mxGeometry x="-0.5819" y="1" relative="1" as="geometry">
            <mxPoint x="-13" as="offset" />
          </mxGeometry>
        </mxCell>
        <mxCell id="9inlvgNgXF6IREDZCtB4-1" value="&lt;u&gt;Time-period&lt;/u&gt;" style="ellipse;whiteSpace=wrap;html=1;" parent="1" vertex="1">
          <mxGeometry x="-745" y="-210" width="85" height="50" as="geometry" />
        </mxCell>
        <mxCell id="9inlvgNgXF6IREDZCtB4-2" value="Timetable" style="rounded=0;whiteSpace=wrap;html=1;fillColor=#dae8fc;strokeColor=#6c8ebf;" parent="1" vertex="1">
          <mxGeometry x="-830" y="-320" width="120" height="60" as="geometry" />
        </mxCell>
        <mxCell id="9inlvgNgXF6IREDZCtB4-3" value="Classroom" style="rounded=0;whiteSpace=wrap;html=1;fillColor=#dae8fc;strokeColor=#6C8EBF;" parent="1" vertex="1">
          <mxGeometry x="-830" y="-445" width="120" height="60" as="geometry" />
        </mxCell>
        <mxCell id="9inlvgNgXF6IREDZCtB4-4" value="&lt;u&gt;Number&lt;/u&gt;" style="ellipse;whiteSpace=wrap;html=1;" parent="1" vertex="1">
          <mxGeometry x="-780" y="-560" width="85" height="50" as="geometry" />
        </mxCell>
        <mxCell id="9inlvgNgXF6IREDZCtB4-5" value="" style="endArrow=none;html=1;rounded=0;" parent="1" source="9inlvgNgXF6IREDZCtB4-4" target="9inlvgNgXF6IREDZCtB4-3" edge="1">
          <mxGeometry width="50" height="50" relative="1" as="geometry">
            <mxPoint x="-313" y="-240" as="sourcePoint" />
            <mxPoint x="-263" y="-290" as="targetPoint" />
          </mxGeometry>
        </mxCell>
        <mxCell id="9inlvgNgXF6IREDZCtB4-6" value="" style="endArrow=none;html=1;rounded=0;" parent="1" source="9inlvgNgXF6IREDZCtB4-2" target="9inlvgNgXF6IREDZCtB4-1" edge="1">
          <mxGeometry width="50" height="50" relative="1" as="geometry">
            <mxPoint x="-816.3199999999999" y="-288.6399999999999" as="sourcePoint" />
            <mxPoint x="-805" y="-540" as="targetPoint" />
          </mxGeometry>
        </mxCell>
        <mxCell id="9inlvgNgXF6IREDZCtB4-7" value="Day of week" style="ellipse;whiteSpace=wrap;html=1;dashed=1;" parent="1" vertex="1">
          <mxGeometry x="-765" y="-90" width="85" height="50" as="geometry" />
        </mxCell>
        <mxCell id="9inlvgNgXF6IREDZCtB4-8" value="Start-hour" style="ellipse;whiteSpace=wrap;html=1;" parent="1" vertex="1">
          <mxGeometry x="-670" y="-60" width="85" height="50" as="geometry" />
        </mxCell>
        <mxCell id="9inlvgNgXF6IREDZCtB4-9" value="" style="endArrow=none;html=1;rounded=0;" parent="1" source="9inlvgNgXF6IREDZCtB4-1" target="9inlvgNgXF6IREDZCtB4-7" edge="1">
          <mxGeometry width="50" height="50" relative="1" as="geometry">
            <mxPoint x="-785" y="-200" as="sourcePoint" />
            <mxPoint x="-830" y="-210" as="targetPoint" />
          </mxGeometry>
        </mxCell>
        <mxCell id="9inlvgNgXF6IREDZCtB4-10" value="" style="endArrow=none;html=1;rounded=0;" parent="1" source="31i7EceWcEp6eoszNZS2-7" target="9inlvgNgXF6IREDZCtB4-8" edge="1">
          <mxGeometry width="50" height="50" relative="1" as="geometry">
            <mxPoint x="-785" y="-200" as="sourcePoint" />
            <mxPoint x="-830" y="-210" as="targetPoint" />
          </mxGeometry>
        </mxCell>
        <mxCell id="9inlvgNgXF6IREDZCtB4-11" value="" style="endArrow=none;html=1;rounded=0;" parent="1" source="31i7EceWcEp6eoszNZS2-7" target="31i7EceWcEp6eoszNZS2-1" edge="1">
          <mxGeometry width="50" height="50" relative="1" as="geometry">
            <mxPoint x="-916" y="-206" as="sourcePoint" />
            <mxPoint x="-616" y="-161" as="targetPoint" />
          </mxGeometry>
        </mxCell>
        <mxCell id="9inlvgNgXF6IREDZCtB4-12" value="1" style="endArrow=none;html=1;rounded=0;" parent="1" source="9inlvgNgXF6IREDZCtB4-20" target="9inlvgNgXF6IREDZCtB4-3" edge="1">
          <mxGeometry x="-0.048" y="-8" width="50" height="50" relative="1" as="geometry">
            <mxPoint x="-682.5" y="-367.5" as="sourcePoint" />
            <mxPoint x="-209" y="-250" as="targetPoint" />
            <mxPoint as="offset" />
          </mxGeometry>
        </mxCell>
        <mxCell id="9inlvgNgXF6IREDZCtB4-13" value="24" style="endArrow=none;html=1;rounded=0;" parent="1" source="9inlvgNgXF6IREDZCtB4-20" target="9inlvgNgXF6IREDZCtB4-2" edge="1">
          <mxGeometry x="0.0166" y="-13" width="50" height="50" relative="1" as="geometry">
            <mxPoint x="-670" y="-338" as="sourcePoint" />
            <mxPoint x="-515" y="-420" as="targetPoint" />
            <mxPoint as="offset" />
          </mxGeometry>
        </mxCell>
        <mxCell id="9inlvgNgXF6IREDZCtB4-14" value="24" style="endArrow=none;html=1;rounded=0;shape=link;" parent="1" source="9inlvgNgXF6IREDZCtB4-20" target="9inlvgNgXF6IREDZCtB4-15" edge="1">
          <mxGeometry x="-0.0086" y="15" width="50" height="50" relative="1" as="geometry">
            <mxPoint x="-638.75" y="-355" as="sourcePoint" />
            <mxPoint x="-558.0299999999997" y="-355.39999999999986" as="targetPoint" />
            <mxPoint as="offset" />
          </mxGeometry>
        </mxCell>
        <mxCell id="9inlvgNgXF6IREDZCtB4-15" value="Session" style="shape=ext;margin=3;double=1;whiteSpace=wrap;html=1;align=center;fillColor=#DAE8FC;strokeColor=#6C8EBF;" parent="1" vertex="1">
          <mxGeometry x="-570" y="-375" width="100" height="40" as="geometry" />
        </mxCell>
        <mxCell id="9inlvgNgXF6IREDZCtB4-16" value="24" style="endArrow=none;html=1;rounded=0;shape=link;" parent="1" source="9inlvgNgXF6IREDZCtB4-15" target="9inlvgNgXF6IREDZCtB4-21" edge="1">
          <mxGeometry x="-0.0086" y="15" width="50" height="50" relative="1" as="geometry">
            <mxPoint x="-488.75" y="-355" as="sourcePoint" />
            <mxPoint x="-457.5" y="-355" as="targetPoint" />
            <mxPoint as="offset" />
          </mxGeometry>
        </mxCell>
        <mxCell id="9inlvgNgXF6IREDZCtB4-17" value="" style="endArrow=none;html=1;rounded=0;" parent="1" source="9inlvgNgXF6IREDZCtB4-21" target="mr6lbZ1328Sc4nQ17jco-3" edge="1">
          <mxGeometry width="50" height="50" relative="1" as="geometry">
            <mxPoint x="-367.5" y="-370" as="sourcePoint" />
            <mxPoint x="-318.75" y="-400" as="targetPoint" />
          </mxGeometry>
        </mxCell>
        <mxCell id="9inlvgNgXF6IREDZCtB4-18" value="1" style="edgeLabel;html=1;align=center;verticalAlign=middle;resizable=0;points=[];" parent="9inlvgNgXF6IREDZCtB4-17" connectable="0" vertex="1">
          <mxGeometry x="-0.5819" y="1" relative="1" as="geometry">
            <mxPoint x="-13" y="-8" as="offset" />
          </mxGeometry>
        </mxCell>
        <mxCell id="9inlvgNgXF6IREDZCtB4-19" value="&lt;span style=&quot;border-bottom: 1px dotted&quot;&gt;Number&lt;/span&gt;" style="ellipse;whiteSpace=wrap;html=1;align=center;" parent="1" vertex="1">
          <mxGeometry x="-670" y="-450" width="100" height="40" as="geometry" />
        </mxCell>
        <mxCell id="9inlvgNgXF6IREDZCtB4-20" value="Have schedule" style="shape=rhombus;double=1;perimeter=rhombusPerimeter;whiteSpace=wrap;html=1;align=center;fillColor=#FAD7AC;strokeColor=#B46504;" parent="1" vertex="1">
          <mxGeometry x="-720" y="-385" width="120" height="60" as="geometry" />
        </mxCell>
        <mxCell id="9inlvgNgXF6IREDZCtB4-21" value="Have" style="rhombus;whiteSpace=wrap;html=1;fillColor=#fad7ac;strokeColor=#b46504;" parent="1" vertex="1">
          <mxGeometry x="-447.5" y="-380" width="110" height="50" as="geometry" />
        </mxCell>
        <mxCell id="9inlvgNgXF6IREDZCtB4-22" value="Date" style="ellipse;whiteSpace=wrap;html=1;" parent="1" vertex="1">
          <mxGeometry x="-830" y="-150" width="85" height="50" as="geometry" />
        </mxCell>
        <mxCell id="9inlvgNgXF6IREDZCtB4-23" value="" style="endArrow=none;html=1;rounded=0;" parent="1" source="9inlvgNgXF6IREDZCtB4-1" target="9inlvgNgXF6IREDZCtB4-22" edge="1">
          <mxGeometry width="50" height="50" relative="1" as="geometry">
            <mxPoint x="-718" y="-147" as="sourcePoint" />
            <mxPoint x="-740" y="-70" as="targetPoint" />
          </mxGeometry>
        </mxCell>
        <mxCell id="9inlvgNgXF6IREDZCtB4-24" value="" style="endArrow=none;html=1;rounded=0;" parent="1" source="9inlvgNgXF6IREDZCtB4-19" target="9inlvgNgXF6IREDZCtB4-15" edge="1">
          <mxGeometry width="50" height="50" relative="1" as="geometry">
            <mxPoint x="-734" y="-500" as="sourcePoint" />
            <mxPoint x="-752" y="-435" as="targetPoint" />
          </mxGeometry>
        </mxCell>
        <mxCell id="31i7EceWcEp6eoszNZS2-1" value="End-hour" style="ellipse;whiteSpace=wrap;html=1;" parent="1" vertex="1">
          <mxGeometry x="-585" y="-70" width="85" height="50" as="geometry" />
        </mxCell>
        <mxCell id="31i7EceWcEp6eoszNZS2-5" value="&lt;span style=&quot;font-weight: normal;&quot;&gt;End-day&lt;/span&gt;" style="ellipse;whiteSpace=wrap;html=1;fontStyle=1" parent="1" vertex="1">
          <mxGeometry x="-545" y="-490" width="85" height="50" as="geometry" />
        </mxCell>
        <mxCell id="31i7EceWcEp6eoszNZS2-6" value="" style="endArrow=none;html=1;rounded=0;" parent="1" source="31i7EceWcEp6eoszNZS2-5" target="C4IdqLEfz3TwAbvIQm7Q-4" edge="1">
          <mxGeometry width="50" height="50" relative="1" as="geometry">
            <mxPoint x="-341" y="-431" as="sourcePoint" />
            <mxPoint x="-295" y="-426" as="targetPoint" />
          </mxGeometry>
        </mxCell>
        <mxCell id="31i7EceWcEp6eoszNZS2-7" value="Time" style="ellipse;whiteSpace=wrap;html=1;" parent="1" vertex="1">
          <mxGeometry x="-685" y="-140" width="85" height="50" as="geometry" />
        </mxCell>
        <mxCell id="31i7EceWcEp6eoszNZS2-8" value="" style="endArrow=none;html=1;rounded=0;" parent="1" source="9inlvgNgXF6IREDZCtB4-1" target="31i7EceWcEp6eoszNZS2-7" edge="1">
          <mxGeometry width="50" height="50" relative="1" as="geometry">
            <mxPoint x="-628" y="-80" as="sourcePoint" />
            <mxPoint x="-622" y="-50" as="targetPoint" />
          </mxGeometry>
        </mxCell>
      </root>
    </mxGraphModel>
  </diagram>
</mxfile>
